<svg width="87" height="146" viewBox="0 0 87 146" fill="none" xmlns="http://www.w3.org/2000/svg">
<path d="M35.4116 5.08691V5.6709C35.4116 6.36491 35.3249 6.98698 35.1514 7.53711C34.9779 8.08724 34.7282 8.55485 34.4023 8.93994C34.0765 9.32503 33.6851 9.61914 33.228 9.82227C32.7752 10.0254 32.2674 10.127 31.7046 10.127C31.1587 10.127 30.6572 10.0254 30.2002 9.82227C29.7474 9.61914 29.3538 9.32503 29.0195 8.93994C28.6895 8.55485 28.4334 8.08724 28.2515 7.53711C28.0695 6.98698 27.9785 6.36491 27.9785 5.6709V5.08691C27.9785 4.3929 28.0674 3.77295 28.2451 3.22705C28.4271 2.67692 28.6831 2.20931 29.0132 1.82422C29.3433 1.4349 29.7347 1.13867 30.1875 0.935547C30.6445 0.732422 31.146 0.630859 31.6919 0.630859C32.2547 0.630859 32.7625 0.732422 33.2153 0.935547C33.6724 1.13867 34.0638 1.4349 34.3896 1.82422C34.7197 2.20931 34.9715 2.67692 35.145 3.22705C35.3228 3.77295 35.4116 4.3929 35.4116 5.08691ZM34.1992 5.6709V5.07422C34.1992 4.52409 34.1421 4.03743 34.0278 3.61426C33.9178 3.19108 33.7549 2.83561 33.5391 2.54785C33.3232 2.26009 33.0588 2.04215 32.7456 1.89404C32.4367 1.74593 32.0854 1.67188 31.6919 1.67188C31.311 1.67188 30.9661 1.74593 30.6572 1.89404C30.3525 2.04215 30.0902 2.26009 29.8701 2.54785C29.6543 2.83561 29.4871 3.19108 29.3687 3.61426C29.2502 4.03743 29.1909 4.52409 29.1909 5.07422V5.6709C29.1909 6.22526 29.2502 6.71615 29.3687 7.14355C29.4871 7.56673 29.6564 7.92432 29.8765 8.21631C30.1007 8.50407 30.3652 8.72201 30.6699 8.87012C30.9788 9.01823 31.3237 9.09229 31.7046 9.09229C32.1024 9.09229 32.4557 9.01823 32.7646 8.87012C33.0736 8.72201 33.3338 8.50407 33.5454 8.21631C33.7612 7.92432 33.9242 7.56673 34.0342 7.14355C34.1442 6.71615 34.1992 6.22526 34.1992 5.6709ZM44.9521 6.10889V7.06104H41.3213V6.10889H44.9521ZM41.5688 3.13184V10H40.3945V3.13184H41.5688ZM45.9043 3.13184V10H44.7236V3.13184H45.9043ZM51.8457 8.82568V5.29004C51.8457 5.01921 51.7907 4.78434 51.6807 4.58545C51.5749 4.38232 51.4141 4.22575 51.1982 4.11572C50.9824 4.0057 50.7158 3.95068 50.3984 3.95068C50.1022 3.95068 49.842 4.00146 49.6177 4.10303C49.3976 4.20459 49.2241 4.33789 49.0972 4.50293C48.9744 4.66797 48.9131 4.8457 48.9131 5.03613H47.7388C47.7388 4.79069 47.8022 4.54736 47.9292 4.30615C48.0562 4.06494 48.2381 3.84701 48.4751 3.65234C48.7163 3.45345 49.0041 3.29688 49.3384 3.18262C49.6769 3.06413 50.0535 3.00488 50.4683 3.00488C50.9676 3.00488 51.4077 3.08952 51.7886 3.25879C52.1737 3.42806 52.4741 3.68408 52.6899 4.02686C52.91 4.3654 53.02 4.79069 53.02 5.30273V8.50195C53.02 8.73047 53.0391 8.9738 53.0771 9.23193C53.1195 9.49007 53.1808 9.71224 53.2612 9.89844V10H52.0361C51.9769 9.86458 51.9303 9.68473 51.8965 9.46045C51.8626 9.23193 51.8457 9.02035 51.8457 8.82568ZM52.0488 5.83594L52.0615 6.66113H50.8745C50.5402 6.66113 50.2419 6.68864 49.9795 6.74365C49.7171 6.79443 49.4971 6.87272 49.3193 6.97852C49.1416 7.08431 49.0062 7.21761 48.9131 7.37842C48.82 7.53499 48.7734 7.71908 48.7734 7.93066C48.7734 8.14648 48.8221 8.34326 48.9194 8.521C49.0168 8.69873 49.1628 8.84049 49.3574 8.94629C49.5563 9.04785 49.7996 9.09863 50.0874 9.09863C50.4471 9.09863 50.7645 9.02246 51.0396 8.87012C51.3146 8.71777 51.5326 8.53158 51.6934 8.31152C51.8584 8.09147 51.9473 7.87777 51.96 7.67041L52.4614 8.23535C52.4318 8.41309 52.3514 8.60986 52.2202 8.82568C52.089 9.0415 51.9134 9.24886 51.6934 9.44775C51.4775 9.64242 51.2194 9.80534 50.9189 9.93652C50.6227 10.0635 50.2884 10.127 49.916 10.127C49.4505 10.127 49.0422 10.036 48.6909 9.854C48.3439 9.67204 48.0731 9.42871 47.8784 9.12402C47.688 8.8151 47.5928 8.47021 47.5928 8.08936C47.5928 7.72119 47.6647 7.39746 47.8086 7.11816C47.9525 6.83464 48.1598 6.59977 48.4307 6.41357C48.7015 6.22314 49.0273 6.07926 49.4082 5.98193C49.7891 5.8846 50.2144 5.83594 50.6841 5.83594H52.0488ZM57.6157 9.16211C57.895 9.16211 58.1532 9.10498 58.3901 8.99072C58.6271 8.87646 58.8218 8.71989 58.9741 8.521C59.1265 8.31787 59.2132 8.08724 59.2344 7.8291H60.3516C60.3304 8.23535 60.1929 8.6141 59.939 8.96533C59.6893 9.31234 59.3613 9.59375 58.9551 9.80957C58.5488 10.0212 58.1024 10.127 57.6157 10.127C57.0994 10.127 56.6488 10.036 56.2637 9.854C55.8828 9.67204 55.5654 9.42236 55.3115 9.10498C55.0618 8.7876 54.8735 8.42367 54.7466 8.01318C54.6239 7.59847 54.5625 7.16048 54.5625 6.69922V6.43262C54.5625 5.97135 54.6239 5.53548 54.7466 5.125C54.8735 4.71029 55.0618 4.34424 55.3115 4.02686C55.5654 3.70947 55.8828 3.4598 56.2637 3.27783C56.6488 3.09587 57.0994 3.00488 57.6157 3.00488C58.1532 3.00488 58.6229 3.11491 59.0249 3.33496C59.4269 3.55078 59.7422 3.84701 59.9707 4.22363C60.2035 4.59603 60.3304 5.01921 60.3516 5.49316H59.2344C59.2132 5.20964 59.1328 4.95361 58.9932 4.7251C58.8577 4.49658 58.6715 4.31462 58.4346 4.1792C58.2018 4.03955 57.9289 3.96973 57.6157 3.96973C57.256 3.96973 56.9535 4.04167 56.708 4.18555C56.4668 4.3252 56.2743 4.51562 56.1304 4.75684C55.9907 4.99382 55.8892 5.2583 55.8257 5.55029C55.7664 5.83805 55.7368 6.13216 55.7368 6.43262V6.69922C55.7368 6.99967 55.7664 7.2959 55.8257 7.58789C55.8849 7.87988 55.9844 8.14437 56.124 8.38135C56.2679 8.61833 56.4604 8.80876 56.7017 8.95264C56.9471 9.09229 57.2518 9.16211 57.6157 9.16211ZM4.27002 51.9341L6.71387 45.7578H8.12305L4.854 53.4575C4.7609 53.6733 4.65723 53.8828 4.54297 54.0859C4.42871 54.2848 4.28906 54.4626 4.12402 54.6191C3.95898 54.7757 3.75374 54.9006 3.5083 54.9937C3.26709 55.0868 2.96663 55.1333 2.60693 55.1333C2.50537 55.1333 2.38477 55.127 2.24512 55.1143C2.10547 55.1058 2.01449 55.0952 1.97217 55.0825L2.01025 54.105C2.0568 54.1134 2.14779 54.1219 2.2832 54.1304C2.41862 54.1346 2.51807 54.1367 2.58154 54.1367C2.82275 54.1367 3.01318 54.0881 3.15283 53.9907C3.29248 53.8934 3.40462 53.7707 3.48926 53.6226C3.57812 53.4702 3.65853 53.3158 3.73047 53.1592L4.27002 51.9341ZM2.19434 45.7578L4.76514 51.5151L5.06982 52.6514L4.0415 52.7275L0.823242 45.7578H2.19434ZM11.7222 54.1621C12.0015 54.1621 12.2596 54.105 12.4966 53.9907C12.7336 53.8765 12.9282 53.7199 13.0806 53.521C13.2329 53.3179 13.3197 53.0872 13.3408 52.8291H14.458C14.4368 53.2354 14.2993 53.6141 14.0454 53.9653C13.7957 54.3123 13.4678 54.5938 13.0615 54.8096C12.6553 55.0212 12.2088 55.127 11.7222 55.127C11.2059 55.127 10.7552 55.036 10.3701 54.854C9.98926 54.672 9.67188 54.4224 9.41797 54.105C9.16829 53.7876 8.97998 53.4237 8.85303 53.0132C8.73031 52.5985 8.66895 52.1605 8.66895 51.6992V51.4326C8.66895 50.9714 8.73031 50.5355 8.85303 50.125C8.97998 49.7103 9.16829 49.3442 9.41797 49.0269C9.67188 48.7095 9.98926 48.4598 10.3701 48.2778C10.7552 48.0959 11.2059 48.0049 11.7222 48.0049C12.2596 48.0049 12.7293 48.1149 13.1313 48.335C13.5334 48.5508 13.8486 48.847 14.0771 49.2236C14.3099 49.596 14.4368 50.0192 14.458 50.4932H13.3408C13.3197 50.2096 13.2393 49.9536 13.0996 49.7251C12.9642 49.4966 12.778 49.3146 12.541 49.1792C12.3083 49.0396 12.0353 48.9697 11.7222 48.9697C11.3625 48.9697 11.0599 49.0417 10.8145 49.1855C10.5732 49.3252 10.3807 49.5156 10.2368 49.7568C10.0972 49.9938 9.99561 50.2583 9.93213 50.5503C9.87288 50.8381 9.84326 51.1322 9.84326 51.4326V51.6992C9.84326 51.9997 9.87288 52.2959 9.93213 52.5879C9.99137 52.8799 10.0908 53.1444 10.2305 53.3813C10.3743 53.6183 10.5669 53.8088 10.8081 53.9526C11.0535 54.0923 11.3582 54.1621 11.7222 54.1621ZM20.3677 48.1318V49.103H17.0479V48.1318H20.3677ZM21.4023 48.1318V55H20.228V48.1318H21.4023ZM16.7622 48.1318H17.9429L17.7651 51.4453C17.7355 51.9574 17.6868 52.4102 17.6191 52.8037C17.5557 53.193 17.4668 53.5273 17.3525 53.8066C17.2425 54.0859 17.1029 54.3145 16.9336 54.4922C16.7686 54.6657 16.5697 54.7948 16.3369 54.8794C16.1042 54.9598 15.8354 55 15.5308 55H15.1626V53.9653L15.4165 53.9463C15.5985 53.9336 15.7529 53.8913 15.8799 53.8193C16.0111 53.7474 16.1211 53.6416 16.21 53.502C16.2988 53.3581 16.3708 53.174 16.4258 52.9497C16.485 52.7254 16.5295 52.4588 16.5591 52.1499C16.5929 51.841 16.6183 51.4813 16.6353 51.0708L16.7622 48.1318ZM25.2236 54.2891L27.1343 48.1318H28.3911L25.6362 56.0601C25.5728 56.2293 25.4881 56.4113 25.3823 56.606C25.2808 56.8049 25.1496 56.9932 24.9888 57.1709C24.828 57.3486 24.6333 57.4925 24.4048 57.6025C24.1805 57.7168 23.9118 57.7739 23.5986 57.7739C23.5055 57.7739 23.387 57.7612 23.2432 57.7358C23.0993 57.7104 22.9977 57.6893 22.9385 57.6724L22.9321 56.7202C22.966 56.7244 23.0189 56.7287 23.0908 56.7329C23.167 56.7414 23.2199 56.7456 23.2495 56.7456C23.5161 56.7456 23.7425 56.7096 23.9287 56.6377C24.1149 56.57 24.2715 56.4536 24.3984 56.2886C24.5296 56.1278 24.6418 55.9056 24.7349 55.6221L25.2236 54.2891ZM23.8208 48.1318L25.6045 53.4639L25.9092 54.7017L25.0649 55.1333L22.5386 48.1318H23.8208ZM33.8882 48.1318V49.103H30.7144V55H29.54V48.1318H33.8882ZM36.1797 53.1401L39.3472 48.1318H40.5278V55H39.3472V49.9917L36.1797 55H35.0117V48.1318H36.1797V53.1401ZM46.9072 53.1401L50.0747 48.1318H51.2554V55H50.0747V49.9917L46.9072 55H45.7393V48.1318H46.9072V53.1401ZM56.4668 55V48.1318H57.6411V54.0352H60.8022V48.1318H61.9829V55H56.4668ZM62.7954 54.0352L62.6812 57.0376H61.6338V55H60.7388V54.0352H62.7954ZM66.9214 55.127C66.4432 55.127 66.0094 55.0465 65.6201 54.8857C65.235 54.7207 64.9028 54.4901 64.6235 54.1938C64.3485 53.8976 64.1369 53.5464 63.9888 53.1401C63.8407 52.7339 63.7666 52.2896 63.7666 51.8071V51.5405C63.7666 50.9819 63.8491 50.4847 64.0142 50.0488C64.1792 49.6087 64.4035 49.2363 64.687 48.9316C64.9705 48.627 65.2922 48.3963 65.6519 48.2397C66.0116 48.0832 66.384 48.0049 66.769 48.0049C67.2599 48.0049 67.6831 48.0895 68.0386 48.2588C68.3983 48.4281 68.6924 48.665 68.9209 48.9697C69.1494 49.2702 69.3187 49.6257 69.4287 50.0361C69.5387 50.4424 69.5938 50.8867 69.5938 51.3691V51.896H64.4648V50.9375H68.4194V50.8486C68.4025 50.5439 68.339 50.2477 68.229 49.96C68.1232 49.6722 67.9539 49.4352 67.7212 49.249C67.4884 49.0628 67.1711 48.9697 66.769 48.9697C66.5024 48.9697 66.257 49.0269 66.0327 49.1411C65.8084 49.2511 65.6159 49.4162 65.4551 49.6362C65.2943 49.8563 65.1694 50.125 65.0806 50.4424C64.9917 50.7598 64.9473 51.1258 64.9473 51.5405V51.8071C64.9473 52.133 64.9917 52.4398 65.0806 52.7275C65.1737 53.0111 65.307 53.2607 65.4805 53.4766C65.6582 53.6924 65.8719 53.8617 66.1216 53.9844C66.3755 54.1071 66.6632 54.1685 66.9849 54.1685C67.3996 54.1685 67.7508 54.0838 68.0386 53.9146C68.3263 53.7453 68.5781 53.5189 68.7939 53.2354L69.5049 53.8003C69.3568 54.0246 69.1685 54.2383 68.9399 54.4414C68.7114 54.6445 68.43 54.8096 68.0957 54.9365C67.7656 55.0635 67.3742 55.127 66.9214 55.127ZM75.624 51.1089V52.061H71.9932V51.1089H75.624ZM72.2407 48.1318V55H71.0664V48.1318H72.2407ZM76.5762 48.1318V55H75.3955V48.1318H76.5762ZM79.4326 50.4932H81.4956C82.05 50.4932 82.5176 50.5905 82.8984 50.7852C83.2793 50.9756 83.5671 51.2401 83.7617 51.5786C83.9606 51.9129 84.0601 52.2938 84.0601 52.7212C84.0601 53.0386 84.005 53.3369 83.895 53.6162C83.785 53.8913 83.62 54.1325 83.3999 54.3398C83.1841 54.5472 82.9154 54.7101 82.5938 54.8286C82.2764 54.9429 81.9103 55 81.4956 55H78.5757V48.1318H79.75V54.0352H81.4956C81.8341 54.0352 82.105 53.9738 82.3081 53.8511C82.5112 53.7284 82.6572 53.5697 82.7461 53.375C82.835 53.1803 82.8794 52.9772 82.8794 52.7656C82.8794 52.5583 82.835 52.3551 82.7461 52.1562C82.6572 51.9574 82.5112 51.7923 82.3081 51.6611C82.105 51.5257 81.8341 51.458 81.4956 51.458H79.4326V50.4932ZM86.5039 48.1318V55H85.3296V48.1318H86.5039ZM9.96387 91.6782H11.4937C12.0269 91.6782 12.5199 91.7692 12.9727 91.9512C13.4297 92.1289 13.8275 92.3828 14.166 92.7129C14.5088 93.043 14.7754 93.4365 14.9658 93.8936C15.1562 94.3464 15.2515 94.8478 15.2515 95.3979C15.2515 95.9481 15.1562 96.4517 14.9658 96.9087C14.7754 97.3657 14.5088 97.7614 14.166 98.0957C13.8275 98.4258 13.4297 98.6818 12.9727 98.8638C12.5199 99.0415 12.0269 99.1304 11.4937 99.1304H9.96387C9.43066 99.1304 8.93766 99.0415 8.48486 98.8638C8.03206 98.6818 7.63428 98.4258 7.2915 98.0957C6.95296 97.7656 6.68848 97.3742 6.49805 96.9214C6.31185 96.4644 6.21875 95.9608 6.21875 95.4106C6.21875 94.8605 6.31185 94.359 6.49805 93.9062C6.68848 93.4492 6.95296 93.0557 7.2915 92.7256C7.63428 92.3913 8.03206 92.1331 8.48486 91.9512C8.93766 91.7692 9.43066 91.6782 9.96387 91.6782ZM9.96387 92.6431C9.40951 92.6431 8.93978 92.7594 8.55469 92.9922C8.1696 93.2207 7.8776 93.5423 7.67871 93.957C7.47982 94.3717 7.38037 94.8563 7.38037 95.4106C7.38037 95.8296 7.43538 96.2083 7.54541 96.5469C7.65967 96.8854 7.82682 97.1753 8.04688 97.4165C8.26693 97.6577 8.53776 97.8439 8.85938 97.9751C9.18099 98.1063 9.54915 98.1719 9.96387 98.1719H11.5063C12.0565 98.1719 12.522 98.0576 12.9028 97.8291C13.2879 97.5964 13.5799 97.2726 13.7788 96.8579C13.9819 96.439 14.0835 95.9523 14.0835 95.3979C14.0835 94.9832 14.0264 94.6066 13.9121 94.2681C13.7979 93.9295 13.6307 93.6396 13.4106 93.3984C13.1948 93.1572 12.9261 92.971 12.6045 92.8398C12.2871 92.7087 11.9211 92.6431 11.5063 92.6431H9.96387ZM11.3223 90.377V100.381H10.1479V90.377H11.3223ZM16.3115 96.6421V96.4961C16.3115 96.001 16.3835 95.5418 16.5273 95.1187C16.6712 94.6912 16.8786 94.321 17.1494 94.0078C17.4202 93.6904 17.7482 93.445 18.1333 93.2715C18.5184 93.0938 18.95 93.0049 19.4282 93.0049C19.9106 93.0049 20.3444 93.0938 20.7295 93.2715C21.1188 93.445 21.4489 93.6904 21.7197 94.0078C21.9948 94.321 22.2043 94.6912 22.3481 95.1187C22.492 95.5418 22.564 96.001 22.564 96.4961V96.6421C22.564 97.1372 22.492 97.5964 22.3481 98.0195C22.2043 98.4427 21.9948 98.813 21.7197 99.1304C21.4489 99.4435 21.1209 99.689 20.7358 99.8667C20.355 100.04 19.9233 100.127 19.4409 100.127C18.9585 100.127 18.5247 100.04 18.1396 99.8667C17.7546 99.689 17.4245 99.4435 17.1494 99.1304C16.8786 98.813 16.6712 98.4427 16.5273 98.0195C16.3835 97.5964 16.3115 97.1372 16.3115 96.6421ZM17.4858 96.4961V96.6421C17.4858 96.9849 17.526 97.3086 17.6064 97.6133C17.6868 97.9137 17.8075 98.1803 17.9683 98.4131C18.1333 98.6458 18.3385 98.8299 18.584 98.9653C18.8294 99.0965 19.1151 99.1621 19.4409 99.1621C19.7625 99.1621 20.0439 99.0965 20.2852 98.9653C20.5306 98.8299 20.7337 98.6458 20.8945 98.4131C21.0553 98.1803 21.1759 97.9137 21.2563 97.6133C21.341 97.3086 21.3833 96.9849 21.3833 96.6421V96.4961C21.3833 96.1576 21.341 95.8381 21.2563 95.5376C21.1759 95.2329 21.0532 94.9642 20.8882 94.7314C20.7274 94.4945 20.5243 94.3083 20.2788 94.1729C20.0376 94.0374 19.7541 93.9697 19.4282 93.9697C19.1066 93.9697 18.8231 94.0374 18.5776 94.1729C18.3364 94.3083 18.1333 94.4945 17.9683 94.7314C17.8075 94.9642 17.6868 95.2329 17.6064 95.5376C17.526 95.8381 17.4858 96.1576 17.4858 96.4961ZM26.6963 93.1318V100H25.5156V93.1318H26.6963ZM29.0005 93.1318V94.084H23.2559V93.1318H29.0005ZM29.5781 96.6421V96.4961C29.5781 96.001 29.6501 95.5418 29.7939 95.1187C29.9378 94.6912 30.1452 94.321 30.416 94.0078C30.6868 93.6904 31.0148 93.445 31.3999 93.2715C31.785 93.0938 32.2166 93.0049 32.6948 93.0049C33.1772 93.0049 33.611 93.0938 33.9961 93.2715C34.3854 93.445 34.7155 93.6904 34.9863 94.0078C35.2614 94.321 35.4709 94.6912 35.6147 95.1187C35.7586 95.5418 35.8306 96.001 35.8306 96.4961V96.6421C35.8306 97.1372 35.7586 97.5964 35.6147 98.0195C35.4709 98.4427 35.2614 98.813 34.9863 99.1304C34.7155 99.4435 34.3875 99.689 34.0024 99.8667C33.6216 100.04 33.1899 100.127 32.7075 100.127C32.2251 100.127 31.7913 100.04 31.4062 99.8667C31.0212 99.689 30.6911 99.4435 30.416 99.1304C30.1452 98.813 29.9378 98.4427 29.7939 98.0195C29.6501 97.5964 29.5781 97.1372 29.5781 96.6421ZM30.7524 96.4961V96.6421C30.7524 96.9849 30.7926 97.3086 30.873 97.6133C30.9535 97.9137 31.0741 98.1803 31.2349 98.4131C31.3999 98.6458 31.6051 98.8299 31.8506 98.9653C32.096 99.0965 32.3817 99.1621 32.7075 99.1621C33.0291 99.1621 33.3105 99.0965 33.5518 98.9653C33.7972 98.8299 34.0003 98.6458 34.1611 98.4131C34.3219 98.1803 34.4425 97.9137 34.5229 97.6133C34.6076 97.3086 34.6499 96.9849 34.6499 96.6421V96.4961C34.6499 96.1576 34.6076 95.8381 34.5229 95.5376C34.4425 95.2329 34.3198 94.9642 34.1548 94.7314C33.994 94.4945 33.7909 94.3083 33.5454 94.1729C33.3042 94.0374 33.0207 93.9697 32.6948 93.9697C32.3732 93.9697 32.0897 94.0374 31.8442 94.1729C31.603 94.3083 31.3999 94.4945 31.2349 94.7314C31.0741 94.9642 30.9535 95.2329 30.873 95.5376C30.7926 95.8381 30.7524 96.1576 30.7524 96.4961ZM41.353 98.8257V95.29C41.353 95.0192 41.298 94.7843 41.188 94.5854C41.0822 94.3823 40.9214 94.2257 40.7056 94.1157C40.4897 94.0057 40.2231 93.9507 39.9058 93.9507C39.6095 93.9507 39.3493 94.0015 39.125 94.103C38.9049 94.2046 38.7314 94.3379 38.6045 94.5029C38.4818 94.668 38.4204 94.8457 38.4204 95.0361H37.2461C37.2461 94.7907 37.3096 94.5474 37.4365 94.3062C37.5635 94.0649 37.7454 93.847 37.9824 93.6523C38.2236 93.4535 38.5114 93.2969 38.8457 93.1826C39.1842 93.0641 39.5609 93.0049 39.9756 93.0049C40.4749 93.0049 40.915 93.0895 41.2959 93.2588C41.681 93.4281 41.9814 93.6841 42.1973 94.0269C42.4173 94.3654 42.5273 94.7907 42.5273 95.3027V98.502C42.5273 98.7305 42.5464 98.9738 42.5845 99.2319C42.6268 99.4901 42.6882 99.7122 42.7686 99.8984V100H41.5435C41.4842 99.8646 41.4377 99.6847 41.4038 99.4604C41.37 99.2319 41.353 99.0203 41.353 98.8257ZM41.5562 95.8359L41.5688 96.6611H40.3818C40.0475 96.6611 39.7492 96.6886 39.4868 96.7437C39.2244 96.7944 39.0044 96.8727 38.8267 96.9785C38.6489 97.0843 38.5135 97.2176 38.4204 97.3784C38.3273 97.535 38.2808 97.7191 38.2808 97.9307C38.2808 98.1465 38.3294 98.3433 38.4268 98.521C38.5241 98.6987 38.6701 98.8405 38.8647 98.9463C39.0636 99.0479 39.307 99.0986 39.5947 99.0986C39.9544 99.0986 40.2718 99.0225 40.5469 98.8701C40.8219 98.7178 41.0399 98.5316 41.2007 98.3115C41.3657 98.0915 41.4546 97.8778 41.4673 97.6704L41.9688 98.2354C41.9391 98.4131 41.8587 98.6099 41.7275 98.8257C41.5964 99.0415 41.4207 99.2489 41.2007 99.4478C40.9849 99.6424 40.7267 99.8053 40.4263 99.9365C40.13 100.063 39.7957 100.127 39.4233 100.127C38.9578 100.127 38.5495 100.036 38.1982 99.854C37.8512 99.672 37.5804 99.4287 37.3857 99.124C37.1953 98.8151 37.1001 98.4702 37.1001 98.0894C37.1001 97.7212 37.172 97.3975 37.3159 97.1182C37.4598 96.8346 37.6672 96.5998 37.938 96.4136C38.2088 96.2231 38.5347 96.0793 38.9155 95.9819C39.2964 95.8846 39.7217 95.8359 40.1914 95.8359H41.5562ZM48.9639 93.1318V94.103H45.644V93.1318H48.9639ZM49.9985 93.1318V100H48.8242V93.1318H49.9985ZM45.3584 93.1318H46.5391L46.3613 96.4453C46.3317 96.9574 46.283 97.4102 46.2153 97.8037C46.1519 98.193 46.063 98.5273 45.9487 98.8066C45.8387 99.0859 45.6991 99.3145 45.5298 99.4922C45.3647 99.6657 45.1659 99.7948 44.9331 99.8794C44.7004 99.9598 44.4316 100 44.127 100H43.7588V98.9653L44.0127 98.9463C44.1947 98.9336 44.3491 98.8913 44.4761 98.8193C44.6073 98.7474 44.7173 98.6416 44.8062 98.502C44.895 98.3581 44.967 98.174 45.022 97.9497C45.0812 97.7254 45.1257 97.4588 45.1553 97.1499C45.1891 96.841 45.2145 96.4813 45.2314 96.0708L45.3584 93.1318ZM52.855 95.4932H54.918C55.4723 95.4932 55.9399 95.5905 56.3208 95.7852C56.7017 95.9756 56.9894 96.2401 57.1841 96.5786C57.383 96.9129 57.4824 97.2938 57.4824 97.7212C57.4824 98.0386 57.4274 98.3369 57.3174 98.6162C57.2074 98.8913 57.0423 99.1325 56.8223 99.3398C56.6064 99.5472 56.3377 99.7101 56.0161 99.8286C55.6987 99.9429 55.3327 100 54.918 100H51.998V93.1318H53.1724V99.0352H54.918C55.2565 99.0352 55.5273 98.9738 55.7305 98.8511C55.9336 98.7284 56.0796 98.5697 56.1685 98.375C56.2573 98.1803 56.3018 97.9772 56.3018 97.7656C56.3018 97.5583 56.2573 97.3551 56.1685 97.1562C56.0796 96.9574 55.9336 96.7923 55.7305 96.6611C55.5273 96.5257 55.2565 96.458 54.918 96.458H52.855V95.4932ZM63.354 90.1421H64.3188C64.3188 90.5568 64.2554 90.8869 64.1284 91.1323C64.0015 91.3735 63.828 91.5597 63.6079 91.6909C63.3921 91.8221 63.1466 91.9215 62.8716 91.9893C62.6007 92.057 62.3193 92.1226 62.0273 92.186C61.6634 92.2622 61.3249 92.3828 61.0117 92.5479C60.7028 92.7087 60.4362 92.9372 60.2119 93.2334C59.9919 93.5296 59.8289 93.9147 59.7231 94.3887C59.6216 94.8626 59.5941 95.4487 59.6406 96.147V96.731H58.6758V96.147C58.6758 95.3641 58.7498 94.6807 58.8979 94.0967C59.0503 93.5127 59.264 93.0197 59.5391 92.6177C59.8141 92.2157 60.14 91.8962 60.5166 91.6592C60.8975 91.4222 61.3164 91.2593 61.7734 91.1704C62.1035 91.1069 62.387 91.0392 62.624 90.9673C62.861 90.8911 63.0409 90.7896 63.1636 90.6626C63.2905 90.5356 63.354 90.3621 63.354 90.1421ZM61.9639 93.5254C62.4124 93.5254 62.8123 93.6037 63.1636 93.7603C63.5148 93.9168 63.8132 94.1348 64.0586 94.4141C64.304 94.6934 64.4902 95.0234 64.6172 95.4043C64.7484 95.7809 64.814 96.1914 64.814 96.6357V96.7754C64.814 97.2536 64.7441 97.6979 64.6045 98.1084C64.4691 98.5146 64.2681 98.8701 64.0015 99.1748C63.7391 99.4753 63.4175 99.7101 63.0366 99.8794C62.66 100.049 62.2305 100.133 61.748 100.133C61.2656 100.133 60.834 100.049 60.4531 99.8794C60.0765 99.7101 59.7549 99.4753 59.4883 99.1748C59.2217 98.8701 59.0186 98.5146 58.8789 98.1084C58.7435 97.6979 58.6758 97.2536 58.6758 96.7754V96.6357C58.6758 96.5299 58.6948 96.4263 58.7329 96.3247C58.771 96.2231 58.8175 96.1195 58.8726 96.0137C58.9318 95.9079 58.9847 95.7957 59.0312 95.6772C59.1878 95.2964 59.4015 94.943 59.6724 94.6172C59.9474 94.2913 60.2754 94.029 60.6562 93.8301C61.0413 93.627 61.4772 93.5254 61.9639 93.5254ZM61.7354 94.4839C61.3037 94.4839 60.9482 94.5833 60.6689 94.7822C60.3939 94.9811 60.1886 95.2456 60.0532 95.5757C59.9178 95.9015 59.8501 96.2549 59.8501 96.6357V96.7754C59.8501 97.097 59.8882 97.4017 59.9644 97.6895C60.0405 97.9772 60.1548 98.2332 60.3071 98.4575C60.4637 98.6776 60.6605 98.8511 60.8975 98.978C61.1387 99.105 61.4222 99.1685 61.748 99.1685C62.0739 99.1685 62.3553 99.105 62.5923 98.978C62.8293 98.8511 63.0239 98.6776 63.1763 98.4575C63.3286 98.2332 63.4429 97.9772 63.519 97.6895C63.5952 97.4017 63.6333 97.097 63.6333 96.7754V96.6357C63.6333 96.348 63.5952 96.075 63.519 95.8169C63.4429 95.5588 63.3265 95.3302 63.1699 95.1313C63.0176 94.9325 62.8208 94.7759 62.5796 94.6616C62.3426 94.5431 62.0612 94.4839 61.7354 94.4839ZM65.8359 96.6421V96.4961C65.8359 96.001 65.9079 95.5418 66.0518 95.1187C66.1956 94.6912 66.403 94.321 66.6738 94.0078C66.9447 93.6904 67.2726 93.445 67.6577 93.2715C68.0428 93.0938 68.4744 93.0049 68.9526 93.0049C69.4351 93.0049 69.8688 93.0938 70.2539 93.2715C70.6432 93.445 70.9733 93.6904 71.2441 94.0078C71.5192 94.321 71.7287 94.6912 71.8726 95.1187C72.0164 95.5418 72.0884 96.001 72.0884 96.4961V96.6421C72.0884 97.1372 72.0164 97.5964 71.8726 98.0195C71.7287 98.4427 71.5192 98.813 71.2441 99.1304C70.9733 99.4435 70.6453 99.689 70.2603 99.8667C69.8794 100.04 69.4478 100.127 68.9653 100.127C68.4829 100.127 68.0492 100.04 67.6641 99.8667C67.279 99.689 66.9489 99.4435 66.6738 99.1304C66.403 98.813 66.1956 98.4427 66.0518 98.0195C65.9079 97.5964 65.8359 97.1372 65.8359 96.6421ZM67.0103 96.4961V96.6421C67.0103 96.9849 67.0505 97.3086 67.1309 97.6133C67.2113 97.9137 67.3319 98.1803 67.4927 98.4131C67.6577 98.6458 67.863 98.8299 68.1084 98.9653C68.3538 99.0965 68.6395 99.1621 68.9653 99.1621C69.2869 99.1621 69.5684 99.0965 69.8096 98.9653C70.055 98.8299 70.2581 98.6458 70.4189 98.4131C70.5798 98.1803 70.7004 97.9137 70.7808 97.6133C70.8654 97.3086 70.9077 96.9849 70.9077 96.6421V96.4961C70.9077 96.1576 70.8654 95.8381 70.7808 95.5376C70.7004 95.2329 70.5776 94.9642 70.4126 94.7314C70.2518 94.4945 70.0487 94.3083 69.8032 94.1729C69.562 94.0374 69.2785 93.9697 68.9526 93.9697C68.631 93.9697 68.3475 94.0374 68.1021 94.1729C67.8608 94.3083 67.6577 94.4945 67.4927 94.7314C67.3319 94.9642 67.2113 95.2329 67.1309 95.5376C67.0505 95.8381 67.0103 96.1576 67.0103 96.4961ZM77.5093 98.4385L79.8452 93.1318H80.9751L77.9155 100H77.103L74.0562 93.1318H75.186L77.5093 98.4385ZM74.8433 93.1318V100H73.6689V93.1318H74.8433ZM80.1372 100V93.1318H81.3179V100H80.1372ZM16.502 135.758V145H15.2769V135.758H16.502ZM22.1958 135.758L18.1841 140.842H16.0132L15.8228 139.827H17.4541L20.6787 135.758H22.1958ZM20.9644 145L17.4922 140.684L18.1777 139.611L22.4624 145H20.9644ZM22.9067 141.642V141.496C22.9067 141.001 22.9787 140.542 23.1226 140.119C23.2664 139.691 23.4738 139.321 23.7446 139.008C24.0155 138.69 24.3434 138.445 24.7285 138.271C25.1136 138.094 25.5452 138.005 26.0234 138.005C26.5059 138.005 26.9396 138.094 27.3247 138.271C27.714 138.445 28.0441 138.69 28.3149 139.008C28.59 139.321 28.7995 139.691 28.9434 140.119C29.0872 140.542 29.1592 141.001 29.1592 141.496V141.642C29.1592 142.137 29.0872 142.596 28.9434 143.02C28.7995 143.443 28.59 143.813 28.3149 144.13C28.0441 144.444 27.7161 144.689 27.3311 144.867C26.9502 145.04 26.5186 145.127 26.0361 145.127C25.5537 145.127 25.12 145.04 24.7349 144.867C24.3498 144.689 24.0197 144.444 23.7446 144.13C23.4738 143.813 23.2664 143.443 23.1226 143.02C22.9787 142.596 22.9067 142.137 22.9067 141.642ZM24.0811 141.496V141.642C24.0811 141.985 24.1213 142.309 24.2017 142.613C24.2821 142.914 24.4027 143.18 24.5635 143.413C24.7285 143.646 24.9338 143.83 25.1792 143.965C25.4246 144.097 25.7103 144.162 26.0361 144.162C26.3577 144.162 26.6392 144.097 26.8804 143.965C27.1258 143.83 27.3289 143.646 27.4897 143.413C27.6506 143.18 27.7712 142.914 27.8516 142.613C27.9362 142.309 27.9785 141.985 27.9785 141.642V141.496C27.9785 141.158 27.9362 140.838 27.8516 140.538C27.7712 140.233 27.6484 139.964 27.4834 139.731C27.3226 139.494 27.1195 139.308 26.874 139.173C26.6328 139.037 26.3493 138.97 26.0234 138.97C25.7018 138.97 25.4183 139.037 25.1729 139.173C24.9316 139.308 24.7285 139.494 24.5635 139.731C24.4027 139.964 24.2821 140.233 24.2017 140.538C24.1213 140.838 24.0811 141.158 24.0811 141.496ZM35.291 141.109V142.061H31.6602V141.109H35.291ZM31.9077 138.132V145H30.7334V138.132H31.9077ZM36.2432 138.132V145H35.0625V138.132H36.2432ZM40.9341 138.132V145H39.7534V138.132H40.9341ZM43.2383 138.132V139.084H37.4937V138.132H43.2383ZM48.3418 143.826V140.29C48.3418 140.019 48.2868 139.784 48.1768 139.585C48.071 139.382 47.9102 139.226 47.6943 139.116C47.4785 139.006 47.2119 138.951 46.8945 138.951C46.5983 138.951 46.3381 139.001 46.1138 139.103C45.8937 139.205 45.7202 139.338 45.5933 139.503C45.4705 139.668 45.4092 139.846 45.4092 140.036H44.2349C44.2349 139.791 44.2983 139.547 44.4253 139.306C44.5522 139.065 44.7342 138.847 44.9712 138.652C45.2124 138.453 45.5002 138.297 45.8345 138.183C46.173 138.064 46.5496 138.005 46.9644 138.005C47.4637 138.005 47.9038 138.09 48.2847 138.259C48.6698 138.428 48.9702 138.684 49.186 139.027C49.4061 139.365 49.5161 139.791 49.5161 140.303V143.502C49.5161 143.73 49.5352 143.974 49.5732 144.232C49.6156 144.49 49.6769 144.712 49.7573 144.898V145H48.5322C48.473 144.865 48.4264 144.685 48.3926 144.46C48.3587 144.232 48.3418 144.02 48.3418 143.826ZM48.5449 140.836L48.5576 141.661H47.3706C47.0363 141.661 46.738 141.689 46.4756 141.744C46.2132 141.794 45.9932 141.873 45.8154 141.979C45.6377 142.084 45.5023 142.218 45.4092 142.378C45.3161 142.535 45.2695 142.719 45.2695 142.931C45.2695 143.146 45.3182 143.343 45.4155 143.521C45.5129 143.699 45.6589 143.84 45.8535 143.946C46.0524 144.048 46.2957 144.099 46.5835 144.099C46.9432 144.099 47.2606 144.022 47.5356 143.87C47.8107 143.718 48.0286 143.532 48.1895 143.312C48.3545 143.091 48.4434 142.878 48.4561 142.67L48.9575 143.235C48.9279 143.413 48.8475 143.61 48.7163 143.826C48.5851 144.042 48.4095 144.249 48.1895 144.448C47.9736 144.642 47.7155 144.805 47.415 144.937C47.1188 145.063 46.7845 145.127 46.4121 145.127C45.9466 145.127 45.5382 145.036 45.187 144.854C44.84 144.672 44.5692 144.429 44.3745 144.124C44.1841 143.815 44.0889 143.47 44.0889 143.089C44.0889 142.721 44.1608 142.397 44.3047 142.118C44.4486 141.835 44.6559 141.6 44.9268 141.414C45.1976 141.223 45.5234 141.079 45.9043 140.982C46.2852 140.885 46.7104 140.836 47.1802 140.836H48.5449ZM52.6392 138.132V145H51.4648V138.132H52.6392ZM57.146 138.132L53.8896 142.067H52.2456L52.0679 141.039H53.4136L55.7178 138.132H57.146ZM55.8828 145L53.3564 141.89L54.1118 141.039L57.3745 145H55.8828ZM61.1958 138.132V145H60.0151V138.132H61.1958ZM63.5 138.132V139.084H57.7554V138.132H63.5ZM65.6201 140.493H67.6831C68.2375 140.493 68.7051 140.59 69.0859 140.785C69.4668 140.976 69.7546 141.24 69.9492 141.579C70.1481 141.913 70.2476 142.294 70.2476 142.721C70.2476 143.039 70.1925 143.337 70.0825 143.616C69.9725 143.891 69.8075 144.132 69.5874 144.34C69.3716 144.547 69.1029 144.71 68.7812 144.829C68.4639 144.943 68.0978 145 67.6831 145H64.7632V138.132H65.9375V144.035H67.6831C68.0216 144.035 68.2925 143.974 68.4956 143.851C68.6987 143.728 68.8447 143.57 68.9336 143.375C69.0225 143.18 69.0669 142.977 69.0669 142.766C69.0669 142.558 69.0225 142.355 68.9336 142.156C68.8447 141.957 68.6987 141.792 68.4956 141.661C68.2925 141.526 68.0216 141.458 67.6831 141.458H65.6201V140.493ZM72.6914 138.132V145H71.5171V138.132H72.6914Z" fill="#EAEAEA"/>
<path d="M27.2231 11.2695H60.7769V11.9043H27.2231V11.2695Z" fill="#EAEAEA"/>
</svg>
