<svg width="209" height="137" viewBox="0 0 209 137" fill="none" xmlns="http://www.w3.org/2000/svg">
<path d="M4.97266 6.96533H5.81641C5.77246 7.36963 5.65674 7.73145 5.46924 8.05078C5.28174 8.37012 5.0166 8.62354 4.67383 8.81104C4.33105 8.99561 3.90332 9.08789 3.39062 9.08789C3.01562 9.08789 2.67432 9.01758 2.3667 8.87695C2.06201 8.73633 1.7998 8.53711 1.58008 8.2793C1.36035 8.01855 1.19043 7.70654 1.07031 7.34326C0.953125 6.97705 0.894531 6.56982 0.894531 6.12158V5.48438C0.894531 5.03613 0.953125 4.63037 1.07031 4.26709C1.19043 3.90088 1.36182 3.5874 1.58447 3.32666C1.81006 3.06592 2.08105 2.86523 2.39746 2.72461C2.71387 2.58398 3.06982 2.51367 3.46533 2.51367C3.94873 2.51367 4.35742 2.60449 4.69141 2.78613C5.02539 2.96777 5.28467 3.21973 5.46924 3.54199C5.65674 3.86133 5.77246 4.23193 5.81641 4.65381H4.97266C4.93164 4.35498 4.85547 4.09863 4.74414 3.88477C4.63281 3.66797 4.47461 3.50098 4.26953 3.38379C4.06445 3.2666 3.79639 3.20801 3.46533 3.20801C3.18115 3.20801 2.93066 3.26221 2.71387 3.37061C2.5 3.479 2.31982 3.63281 2.17334 3.83203C2.02979 4.03125 1.92139 4.27002 1.84814 4.54834C1.7749 4.82666 1.73828 5.13574 1.73828 5.47559V6.12158C1.73828 6.43506 1.77051 6.72949 1.83496 7.00488C1.90234 7.28027 2.00342 7.52197 2.13818 7.72998C2.27295 7.93799 2.44434 8.10205 2.65234 8.22217C2.86035 8.33936 3.10645 8.39795 3.39062 8.39795C3.75098 8.39795 4.03809 8.34082 4.25195 8.22656C4.46582 8.1123 4.62695 7.94824 4.73535 7.73438C4.84668 7.52051 4.92578 7.26416 4.97266 6.96533ZM6.63379 6.67529V6.57422C6.63379 6.23145 6.68359 5.91357 6.7832 5.62061C6.88281 5.32471 7.02637 5.06836 7.21387 4.85156C7.40137 4.63184 7.62842 4.46191 7.89502 4.3418C8.16162 4.21875 8.46045 4.15723 8.7915 4.15723C9.12549 4.15723 9.42578 4.21875 9.69238 4.3418C9.96191 4.46191 10.1904 4.63184 10.3779 4.85156C10.5684 5.06836 10.7134 5.32471 10.813 5.62061C10.9126 5.91357 10.9624 6.23145 10.9624 6.57422V6.67529C10.9624 7.01807 10.9126 7.33594 10.813 7.62891C10.7134 7.92188 10.5684 8.17822 10.3779 8.39795C10.1904 8.61475 9.96338 8.78467 9.69678 8.90771C9.43311 9.02783 9.13428 9.08789 8.80029 9.08789C8.46631 9.08789 8.16602 9.02783 7.89941 8.90771C7.63281 8.78467 7.4043 8.61475 7.21387 8.39795C7.02637 8.17822 6.88281 7.92188 6.7832 7.62891C6.68359 7.33594 6.63379 7.01807 6.63379 6.67529ZM7.44678 6.57422V6.67529C7.44678 6.9126 7.47461 7.13672 7.53027 7.34766C7.58594 7.55566 7.66943 7.74023 7.78076 7.90137C7.89502 8.0625 8.03711 8.18994 8.20703 8.28369C8.37695 8.37451 8.57471 8.41992 8.80029 8.41992C9.02295 8.41992 9.21777 8.37451 9.38477 8.28369C9.55469 8.18994 9.69531 8.0625 9.80664 7.90137C9.91797 7.74023 10.0015 7.55566 10.0571 7.34766C10.1157 7.13672 10.145 6.9126 10.145 6.67529V6.57422C10.145 6.33984 10.1157 6.11865 10.0571 5.91064C10.0015 5.69971 9.9165 5.51367 9.80225 5.35254C9.69092 5.18848 9.55029 5.05957 9.38037 4.96582C9.21338 4.87207 9.01709 4.8252 8.7915 4.8252C8.56885 4.8252 8.37256 4.87207 8.20264 4.96582C8.03564 5.05957 7.89502 5.18848 7.78076 5.35254C7.66943 5.51367 7.58594 5.69971 7.53027 5.91064C7.47461 6.11865 7.44678 6.33984 7.44678 6.57422ZM15.0537 4.24512V4.91748H12.8564V9H12.0435V4.24512H15.0537ZM18.7627 4.24512V4.91748H16.4644V4.24512H18.7627ZM19.479 4.24512V9H18.666V4.24512H19.479ZM16.2666 4.24512H17.084L16.9609 6.53906C16.9404 6.89355 16.9067 7.20703 16.8599 7.47949C16.8159 7.74902 16.7544 7.98047 16.6753 8.17383C16.5991 8.36719 16.5024 8.52539 16.3853 8.64844C16.271 8.76855 16.1333 8.85791 15.9722 8.9165C15.811 8.97217 15.625 9 15.4141 9H15.1592V8.28369L15.335 8.27051C15.4609 8.26172 15.5679 8.23242 15.6558 8.18262C15.7466 8.13281 15.8228 8.05957 15.8843 7.96289C15.9458 7.86328 15.9956 7.73584 16.0337 7.58057C16.0747 7.42529 16.1055 7.24072 16.126 7.02686C16.1494 6.81299 16.167 6.56396 16.1787 6.27979L16.2666 4.24512ZM23.5923 8.18701V5.73926C23.5923 5.55176 23.5542 5.38916 23.478 5.25146C23.4048 5.11084 23.2935 5.00244 23.144 4.92627C22.9946 4.8501 22.8101 4.81201 22.5903 4.81201C22.3853 4.81201 22.2051 4.84717 22.0498 4.91748C21.8975 4.98779 21.7773 5.08008 21.6895 5.19434C21.6045 5.30859 21.562 5.43164 21.562 5.56348H20.749C20.749 5.39355 20.793 5.2251 20.8809 5.05811C20.9688 4.89111 21.0947 4.74023 21.2588 4.60547C21.4258 4.46777 21.625 4.35938 21.8564 4.28027C22.0908 4.19824 22.3516 4.15723 22.6387 4.15723C22.9844 4.15723 23.2891 4.21582 23.5527 4.33301C23.8193 4.4502 24.0273 4.62744 24.1768 4.86475C24.3291 5.09912 24.4053 5.39355 24.4053 5.74805V7.96289C24.4053 8.12109 24.4185 8.28955 24.4448 8.46826C24.4741 8.64697 24.5166 8.80078 24.5723 8.92969V9H23.7241C23.6831 8.90625 23.6509 8.78174 23.6274 8.62646C23.604 8.46826 23.5923 8.32178 23.5923 8.18701ZM23.7329 6.11719L23.7417 6.68848H22.9199C22.6885 6.68848 22.4819 6.70752 22.3003 6.74561C22.1187 6.78076 21.9663 6.83496 21.8433 6.9082C21.7202 6.98145 21.6265 7.07373 21.562 7.18506C21.4976 7.29346 21.4653 7.4209 21.4653 7.56738C21.4653 7.7168 21.499 7.85303 21.5664 7.97607C21.6338 8.09912 21.7349 8.19727 21.8696 8.27051C22.0073 8.34082 22.1758 8.37598 22.375 8.37598C22.624 8.37598 22.8438 8.32324 23.0342 8.21777C23.2246 8.1123 23.3755 7.9834 23.4868 7.83105C23.6011 7.67871 23.6626 7.53076 23.6714 7.38721L24.0186 7.77832C23.998 7.90137 23.9424 8.0376 23.8516 8.18701C23.7607 8.33643 23.6392 8.47998 23.4868 8.61768C23.3374 8.75244 23.1587 8.86523 22.9507 8.95605C22.7456 9.04395 22.5142 9.08789 22.2563 9.08789C21.9341 9.08789 21.6514 9.0249 21.4082 8.89893C21.168 8.77295 20.9805 8.60449 20.8457 8.39355C20.7139 8.17969 20.6479 7.94092 20.6479 7.67725C20.6479 7.42236 20.6978 7.19824 20.7974 7.00488C20.897 6.80859 21.0405 6.646 21.228 6.51709C21.4155 6.38525 21.6411 6.28564 21.9048 6.21826C22.1685 6.15088 22.4629 6.11719 22.7881 6.11719H23.7329ZM25.7544 4.24512H26.5674V8.33203H28.3076V4.24512H29.125V8.33203H30.8608V4.24512H31.6738V9H25.7544V4.24512ZM34.9434 9.08789C34.6123 9.08789 34.312 9.03223 34.0425 8.9209C33.7759 8.80664 33.5459 8.64697 33.3525 8.44189C33.1621 8.23682 33.0156 7.99365 32.9131 7.7124C32.8105 7.43115 32.7593 7.12354 32.7593 6.78955V6.60498C32.7593 6.21826 32.8164 5.87402 32.9307 5.57227C33.0449 5.26758 33.2002 5.00977 33.3965 4.79883C33.5928 4.58789 33.8154 4.42822 34.0645 4.31982C34.3135 4.21143 34.5713 4.15723 34.8379 4.15723C35.1777 4.15723 35.4707 4.21582 35.7168 4.33301C35.9658 4.4502 36.1694 4.61426 36.3276 4.8252C36.4858 5.0332 36.603 5.2793 36.6792 5.56348C36.7554 5.84473 36.7935 6.15234 36.7935 6.48633V6.85107H33.2427V6.1875H35.9805V6.12598C35.9688 5.91504 35.9248 5.70996 35.8486 5.51074C35.7754 5.31152 35.6582 5.14746 35.4971 5.01855C35.3359 4.88965 35.1162 4.8252 34.8379 4.8252C34.6533 4.8252 34.4834 4.86475 34.3281 4.94385C34.1729 5.02002 34.0396 5.13428 33.9282 5.28662C33.8169 5.43896 33.7305 5.625 33.6689 5.84473C33.6074 6.06445 33.5767 6.31787 33.5767 6.60498V6.78955C33.5767 7.01514 33.6074 7.22754 33.6689 7.42676C33.7334 7.62305 33.8257 7.7959 33.9458 7.94531C34.0688 8.09473 34.2168 8.21191 34.3896 8.29688C34.5654 8.38184 34.7646 8.42432 34.9873 8.42432C35.2744 8.42432 35.5176 8.36572 35.7168 8.24854C35.916 8.13135 36.0903 7.97461 36.2397 7.77832L36.7319 8.16943C36.6294 8.32471 36.499 8.47266 36.3408 8.61328C36.1826 8.75391 35.9878 8.86816 35.7563 8.95605C35.5278 9.04395 35.2568 9.08789 34.9434 9.08789ZM40.9683 6.30615V6.96533H38.4546V6.30615H40.9683ZM38.626 4.24512V9H37.813V4.24512H38.626ZM41.6274 4.24512V9H40.8101V4.24512H41.6274ZM43.8159 7.7124L46.0088 4.24512H46.8262V9H46.0088V5.53271L43.8159 9H43.0073V4.24512H43.8159V7.7124ZM50.1045 9.08789C49.7734 9.08789 49.4731 9.03223 49.2036 8.9209C48.937 8.80664 48.707 8.64697 48.5137 8.44189C48.3232 8.23682 48.1768 7.99365 48.0742 7.7124C47.9717 7.43115 47.9204 7.12354 47.9204 6.78955V6.60498C47.9204 6.21826 47.9775 5.87402 48.0918 5.57227C48.2061 5.26758 48.3613 5.00977 48.5576 4.79883C48.7539 4.58789 48.9766 4.42822 49.2256 4.31982C49.4746 4.21143 49.7324 4.15723 49.999 4.15723C50.3389 4.15723 50.6318 4.21582 50.8779 4.33301C51.127 4.4502 51.3306 4.61426 51.4888 4.8252C51.647 5.0332 51.7642 5.2793 51.8403 5.56348C51.9165 5.84473 51.9546 6.15234 51.9546 6.48633V6.85107H48.4038V6.1875H51.1416V6.12598C51.1299 5.91504 51.0859 5.70996 51.0098 5.51074C50.9365 5.31152 50.8193 5.14746 50.6582 5.01855C50.4971 4.88965 50.2773 4.8252 49.999 4.8252C49.8145 4.8252 49.6445 4.86475 49.4893 4.94385C49.334 5.02002 49.2007 5.13428 49.0894 5.28662C48.978 5.43896 48.8916 5.625 48.8301 5.84473C48.7686 6.06445 48.7378 6.31787 48.7378 6.60498V6.78955C48.7378 7.01514 48.7686 7.22754 48.8301 7.42676C48.8945 7.62305 48.9868 7.7959 49.1069 7.94531C49.23 8.09473 49.3779 8.21191 49.5508 8.29688C49.7266 8.38184 49.9258 8.42432 50.1484 8.42432C50.4355 8.42432 50.6787 8.36572 50.8779 8.24854C51.0771 8.13135 51.2515 7.97461 51.4009 7.77832L51.8931 8.16943C51.7905 8.32471 51.6602 8.47266 51.502 8.61328C51.3438 8.75391 51.1489 8.86816 50.9175 8.95605C50.689 9.04395 50.418 9.08789 50.1045 9.08789ZM58.3618 6.30615V6.96533H55.8481V6.30615H58.3618ZM56.0195 4.24512V9H55.2065V4.24512H56.0195ZM59.021 4.24512V9H58.2036V4.24512H59.021ZM63.1343 8.18701V5.73926C63.1343 5.55176 63.0962 5.38916 63.02 5.25146C62.9468 5.11084 62.8354 5.00244 62.686 4.92627C62.5366 4.8501 62.3521 4.81201 62.1323 4.81201C61.9272 4.81201 61.7471 4.84717 61.5918 4.91748C61.4395 4.98779 61.3193 5.08008 61.2314 5.19434C61.1465 5.30859 61.104 5.43164 61.104 5.56348H60.291C60.291 5.39355 60.335 5.2251 60.4229 5.05811C60.5107 4.89111 60.6367 4.74023 60.8008 4.60547C60.9678 4.46777 61.167 4.35938 61.3984 4.28027C61.6328 4.19824 61.8936 4.15723 62.1807 4.15723C62.5264 4.15723 62.8311 4.21582 63.0947 4.33301C63.3613 4.4502 63.5693 4.62744 63.7188 4.86475C63.8711 5.09912 63.9473 5.39355 63.9473 5.74805V7.96289C63.9473 8.12109 63.9604 8.28955 63.9868 8.46826C64.0161 8.64697 64.0586 8.80078 64.1143 8.92969V9H63.2661C63.2251 8.90625 63.1929 8.78174 63.1694 8.62646C63.146 8.46826 63.1343 8.32178 63.1343 8.18701ZM63.2749 6.11719L63.2837 6.68848H62.4619C62.2305 6.68848 62.0239 6.70752 61.8423 6.74561C61.6606 6.78076 61.5083 6.83496 61.3853 6.9082C61.2622 6.98145 61.1685 7.07373 61.104 7.18506C61.0396 7.29346 61.0073 7.4209 61.0073 7.56738C61.0073 7.7168 61.041 7.85303 61.1084 7.97607C61.1758 8.09912 61.2769 8.19727 61.4116 8.27051C61.5493 8.34082 61.7178 8.37598 61.917 8.37598C62.166 8.37598 62.3857 8.32324 62.5762 8.21777C62.7666 8.1123 62.9175 7.9834 63.0288 7.83105C63.1431 7.67871 63.2046 7.53076 63.2134 7.38721L63.5605 7.77832C63.54 7.90137 63.4844 8.0376 63.3936 8.18701C63.3027 8.33643 63.1812 8.47998 63.0288 8.61768C62.8794 8.75244 62.7007 8.86523 62.4927 8.95605C62.2876 9.04395 62.0562 9.08789 61.7983 9.08789C61.4761 9.08789 61.1934 9.0249 60.9502 8.89893C60.71 8.77295 60.5225 8.60449 60.3877 8.39355C60.2559 8.17969 60.1899 7.94092 60.1899 7.67725C60.1899 7.42236 60.2397 7.19824 60.3394 7.00488C60.439 6.80859 60.5825 6.646 60.77 6.51709C60.9575 6.38525 61.1831 6.28564 61.4468 6.21826C61.7104 6.15088 62.0049 6.11719 62.3301 6.11719H63.2749ZM67.2432 6.67529V6.57422C67.2432 6.23145 67.293 5.91357 67.3926 5.62061C67.4922 5.32471 67.6357 5.06836 67.8232 4.85156C68.0107 4.63184 68.2378 4.46191 68.5044 4.3418C68.771 4.21875 69.0698 4.15723 69.4009 4.15723C69.7349 4.15723 70.0352 4.21875 70.3018 4.3418C70.5713 4.46191 70.7998 4.63184 70.9873 4.85156C71.1777 5.06836 71.3228 5.32471 71.4224 5.62061C71.522 5.91357 71.5718 6.23145 71.5718 6.57422V6.67529C71.5718 7.01807 71.522 7.33594 71.4224 7.62891C71.3228 7.92188 71.1777 8.17822 70.9873 8.39795C70.7998 8.61475 70.5728 8.78467 70.3062 8.90771C70.0425 9.02783 69.7437 9.08789 69.4097 9.08789C69.0757 9.08789 68.7754 9.02783 68.5088 8.90771C68.2422 8.78467 68.0137 8.61475 67.8232 8.39795C67.6357 8.17822 67.4922 7.92188 67.3926 7.62891C67.293 7.33594 67.2432 7.01807 67.2432 6.67529ZM68.0562 6.57422V6.67529C68.0562 6.9126 68.084 7.13672 68.1396 7.34766C68.1953 7.55566 68.2788 7.74023 68.3901 7.90137C68.5044 8.0625 68.6465 8.18994 68.8164 8.28369C68.9863 8.37451 69.1841 8.41992 69.4097 8.41992C69.6323 8.41992 69.8271 8.37451 69.9941 8.28369C70.1641 8.18994 70.3047 8.0625 70.416 7.90137C70.5273 7.74023 70.6108 7.55566 70.6665 7.34766C70.7251 7.13672 70.7544 6.9126 70.7544 6.67529V6.57422C70.7544 6.33984 70.7251 6.11865 70.6665 5.91064C70.6108 5.69971 70.5259 5.51367 70.4116 5.35254C70.3003 5.18848 70.1597 5.05957 69.9897 4.96582C69.8228 4.87207 69.6265 4.8252 69.4009 4.8252C69.1782 4.8252 68.9819 4.87207 68.812 4.96582C68.645 5.05957 68.5044 5.18848 68.3901 5.35254C68.2788 5.51367 68.1953 5.69971 68.1396 5.91064C68.084 6.11865 68.0562 6.33984 68.0562 6.57422ZM75.6411 2.17529H76.3091C76.3091 2.4624 76.2651 2.69092 76.1772 2.86084C76.0894 3.02783 75.9692 3.15674 75.8169 3.24756C75.6675 3.33838 75.4976 3.40723 75.3071 3.4541C75.1196 3.50098 74.9248 3.54639 74.7227 3.59033C74.4707 3.64307 74.2363 3.72656 74.0195 3.84082C73.8057 3.95215 73.6211 4.11035 73.4658 4.31543C73.3135 4.52051 73.2007 4.78711 73.1274 5.11523C73.0571 5.44336 73.0381 5.84912 73.0703 6.33252V6.73682H72.4023V6.33252C72.4023 5.79053 72.4536 5.31738 72.5562 4.91309C72.6616 4.50879 72.8096 4.16748 73 3.88916C73.1904 3.61084 73.416 3.38965 73.6768 3.22559C73.9404 3.06152 74.2305 2.94873 74.5469 2.88721C74.7754 2.84326 74.9717 2.79639 75.1357 2.74658C75.2998 2.69385 75.4243 2.62354 75.5093 2.53564C75.5972 2.44775 75.6411 2.32764 75.6411 2.17529ZM74.6787 4.51758C74.9893 4.51758 75.2661 4.57178 75.5093 4.68018C75.7524 4.78857 75.959 4.93945 76.1289 5.13281C76.2988 5.32617 76.4277 5.55469 76.5156 5.81836C76.6064 6.0791 76.6519 6.36328 76.6519 6.6709V6.76758C76.6519 7.09863 76.6035 7.40625 76.5068 7.69043C76.4131 7.97168 76.2739 8.21777 76.0894 8.42871C75.9077 8.63672 75.6851 8.79932 75.4214 8.9165C75.1606 9.03369 74.8633 9.09229 74.5293 9.09229C74.1953 9.09229 73.8965 9.03369 73.6328 8.9165C73.3721 8.79932 73.1494 8.63672 72.9648 8.42871C72.7803 8.21777 72.6396 7.97168 72.543 7.69043C72.4492 7.40625 72.4023 7.09863 72.4023 6.76758V6.6709C72.4023 6.59766 72.4155 6.52588 72.4419 6.45557C72.4683 6.38525 72.5005 6.31348 72.5386 6.24023C72.5796 6.16699 72.6162 6.08936 72.6484 6.00732C72.7568 5.74365 72.9048 5.49902 73.0923 5.27344C73.2827 5.04785 73.5098 4.86621 73.7734 4.72852C74.04 4.58789 74.3418 4.51758 74.6787 4.51758ZM74.5205 5.18115C74.2217 5.18115 73.9756 5.25 73.7822 5.3877C73.5918 5.52539 73.4497 5.7085 73.356 5.93701C73.2622 6.1626 73.2153 6.40723 73.2153 6.6709V6.76758C73.2153 6.99023 73.2417 7.20117 73.2944 7.40039C73.3472 7.59961 73.4263 7.77686 73.5317 7.93213C73.6401 8.08447 73.7764 8.20459 73.9404 8.29248C74.1074 8.38037 74.3037 8.42432 74.5293 8.42432C74.7549 8.42432 74.9497 8.38037 75.1138 8.29248C75.2778 8.20459 75.4126 8.08447 75.5181 7.93213C75.6235 7.77686 75.7026 7.59961 75.7554 7.40039C75.8081 7.20117 75.8345 6.99023 75.8345 6.76758V6.6709C75.8345 6.47168 75.8081 6.28271 75.7554 6.104C75.7026 5.92529 75.6221 5.76709 75.5137 5.62939C75.4082 5.4917 75.272 5.3833 75.105 5.3042C74.9409 5.22217 74.7461 5.18115 74.5205 5.18115ZM78.3086 5.15918V10.8281H77.4912V4.24512H78.2383L78.3086 5.15918ZM81.5122 6.58301V6.67529C81.5122 7.021 81.4712 7.3418 81.3892 7.6377C81.3071 7.93066 81.187 8.18555 81.0288 8.40234C80.8735 8.61914 80.6816 8.7876 80.4531 8.90771C80.2246 9.02783 79.9624 9.08789 79.6665 9.08789C79.3647 9.08789 79.0981 9.03809 78.8667 8.93848C78.6353 8.83887 78.439 8.69385 78.2778 8.50342C78.1167 8.31299 77.9878 8.08447 77.8911 7.81787C77.7974 7.55127 77.7329 7.25098 77.6978 6.91699V6.4248C77.7329 6.07324 77.7988 5.7583 77.8955 5.47998C77.9922 5.20166 78.1196 4.96436 78.2778 4.76807C78.439 4.56885 78.6338 4.41797 78.8623 4.31543C79.0908 4.20996 79.3545 4.15723 79.6533 4.15723C79.9521 4.15723 80.2173 4.21582 80.4487 4.33301C80.6802 4.44727 80.875 4.61133 81.0332 4.8252C81.1914 5.03906 81.3101 5.29541 81.3892 5.59424C81.4712 5.89014 81.5122 6.21973 81.5122 6.58301ZM80.6948 6.67529V6.58301C80.6948 6.3457 80.6699 6.12305 80.6201 5.91504C80.5703 5.7041 80.4927 5.51953 80.3872 5.36133C80.2847 5.2002 80.1528 5.07422 79.9917 4.9834C79.8306 4.88965 79.6387 4.84277 79.416 4.84277C79.2109 4.84277 79.0322 4.87793 78.8799 4.94824C78.7305 5.01855 78.603 5.11377 78.4976 5.23389C78.3921 5.35107 78.3057 5.48584 78.2383 5.63818C78.1738 5.7876 78.1255 5.94287 78.0933 6.104V7.24219C78.1519 7.44727 78.2339 7.64062 78.3394 7.82227C78.4448 8.00098 78.5854 8.146 78.7612 8.25732C78.937 8.36572 79.1582 8.41992 79.4248 8.41992C79.6445 8.41992 79.8335 8.37451 79.9917 8.28369C80.1528 8.18994 80.2847 8.0625 80.3872 7.90137C80.4927 7.74023 80.5703 7.55566 80.6201 7.34766C80.6699 7.13672 80.6948 6.9126 80.6948 6.67529ZM85.353 8.18701V5.73926C85.353 5.55176 85.3149 5.38916 85.2388 5.25146C85.1655 5.11084 85.0542 5.00244 84.9048 4.92627C84.7554 4.8501 84.5708 4.81201 84.3511 4.81201C84.146 4.81201 83.9658 4.84717 83.8105 4.91748C83.6582 4.98779 83.5381 5.08008 83.4502 5.19434C83.3652 5.30859 83.3228 5.43164 83.3228 5.56348H82.5098C82.5098 5.39355 82.5537 5.2251 82.6416 5.05811C82.7295 4.89111 82.8555 4.74023 83.0195 4.60547C83.1865 4.46777 83.3857 4.35938 83.6172 4.28027C83.8516 4.19824 84.1123 4.15723 84.3994 4.15723C84.7451 4.15723 85.0498 4.21582 85.3135 4.33301C85.5801 4.4502 85.7881 4.62744 85.9375 4.86475C86.0898 5.09912 86.166 5.39355 86.166 5.74805V7.96289C86.166 8.12109 86.1792 8.28955 86.2056 8.46826C86.2349 8.64697 86.2773 8.80078 86.333 8.92969V9H85.4849C85.4438 8.90625 85.4116 8.78174 85.3882 8.62646C85.3647 8.46826 85.353 8.32178 85.353 8.18701ZM85.4937 6.11719L85.5024 6.68848H84.6807C84.4492 6.68848 84.2427 6.70752 84.061 6.74561C83.8794 6.78076 83.7271 6.83496 83.604 6.9082C83.481 6.98145 83.3872 7.07373 83.3228 7.18506C83.2583 7.29346 83.2261 7.4209 83.2261 7.56738C83.2261 7.7168 83.2598 7.85303 83.3271 7.97607C83.3945 8.09912 83.4956 8.19727 83.6304 8.27051C83.7681 8.34082 83.9365 8.37598 84.1357 8.37598C84.3848 8.37598 84.6045 8.32324 84.7949 8.21777C84.9854 8.1123 85.1362 7.9834 85.2476 7.83105C85.3618 7.67871 85.4233 7.53076 85.4321 7.38721L85.7793 7.77832C85.7588 7.90137 85.7031 8.0376 85.6123 8.18701C85.5215 8.33643 85.3999 8.47998 85.2476 8.61768C85.0981 8.75244 84.9194 8.86523 84.7114 8.95605C84.5063 9.04395 84.2749 9.08789 84.0171 9.08789C83.6948 9.08789 83.4121 9.0249 83.1689 8.89893C82.9287 8.77295 82.7412 8.60449 82.6064 8.39355C82.4746 8.17969 82.4087 7.94092 82.4087 7.67725C82.4087 7.42236 82.4585 7.19824 82.5581 7.00488C82.6577 6.80859 82.8013 6.646 82.9888 6.51709C83.1763 6.38525 83.4019 6.28564 83.6655 6.21826C83.9292 6.15088 84.2236 6.11719 84.5488 6.11719H85.4937ZM90.4946 2.17529H91.1626C91.1626 2.4624 91.1187 2.69092 91.0308 2.86084C90.9429 3.02783 90.8228 3.15674 90.6704 3.24756C90.521 3.33838 90.3511 3.40723 90.1606 3.4541C89.9731 3.50098 89.7783 3.54639 89.5762 3.59033C89.3242 3.64307 89.0898 3.72656 88.873 3.84082C88.6592 3.95215 88.4746 4.11035 88.3193 4.31543C88.167 4.52051 88.0542 4.78711 87.981 5.11523C87.9106 5.44336 87.8916 5.84912 87.9238 6.33252V6.73682H87.2559V6.33252C87.2559 5.79053 87.3071 5.31738 87.4097 4.91309C87.5151 4.50879 87.6631 4.16748 87.8535 3.88916C88.0439 3.61084 88.2695 3.38965 88.5303 3.22559C88.7939 3.06152 89.084 2.94873 89.4004 2.88721C89.6289 2.84326 89.8252 2.79639 89.9893 2.74658C90.1533 2.69385 90.2778 2.62354 90.3628 2.53564C90.4507 2.44775 90.4946 2.32764 90.4946 2.17529ZM89.5322 4.51758C89.8428 4.51758 90.1196 4.57178 90.3628 4.68018C90.606 4.78857 90.8125 4.93945 90.9824 5.13281C91.1523 5.32617 91.2812 5.55469 91.3691 5.81836C91.46 6.0791 91.5054 6.36328 91.5054 6.6709V6.76758C91.5054 7.09863 91.457 7.40625 91.3604 7.69043C91.2666 7.97168 91.1274 8.21777 90.9429 8.42871C90.7612 8.63672 90.5386 8.79932 90.2749 8.9165C90.0142 9.03369 89.7168 9.09229 89.3828 9.09229C89.0488 9.09229 88.75 9.03369 88.4863 8.9165C88.2256 8.79932 88.0029 8.63672 87.8184 8.42871C87.6338 8.21777 87.4932 7.97168 87.3965 7.69043C87.3027 7.40625 87.2559 7.09863 87.2559 6.76758V6.6709C87.2559 6.59766 87.269 6.52588 87.2954 6.45557C87.3218 6.38525 87.354 6.31348 87.3921 6.24023C87.4331 6.16699 87.4697 6.08936 87.502 6.00732C87.6104 5.74365 87.7583 5.49902 87.9458 5.27344C88.1362 5.04785 88.3633 4.86621 88.627 4.72852C88.8936 4.58789 89.1953 4.51758 89.5322 4.51758ZM89.374 5.18115C89.0752 5.18115 88.8291 5.25 88.6357 5.3877C88.4453 5.52539 88.3032 5.7085 88.2095 5.93701C88.1157 6.1626 88.0688 6.40723 88.0688 6.6709V6.76758C88.0688 6.99023 88.0952 7.20117 88.1479 7.40039C88.2007 7.59961 88.2798 7.77686 88.3853 7.93213C88.4937 8.08447 88.6299 8.20459 88.7939 8.29248C88.9609 8.38037 89.1572 8.42432 89.3828 8.42432C89.6084 8.42432 89.8032 8.38037 89.9673 8.29248C90.1313 8.20459 90.2661 8.08447 90.3716 7.93213C90.4771 7.77686 90.5562 7.59961 90.6089 7.40039C90.6616 7.20117 90.688 6.99023 90.688 6.76758V6.6709C90.688 6.47168 90.6616 6.28271 90.6089 6.104C90.5562 5.92529 90.4756 5.76709 90.3672 5.62939C90.2617 5.4917 90.1255 5.3833 89.9585 5.3042C89.7944 5.22217 89.5996 5.18115 89.374 5.18115ZM92.2129 6.67529V6.57422C92.2129 6.23145 92.2627 5.91357 92.3623 5.62061C92.4619 5.32471 92.6055 5.06836 92.793 4.85156C92.9805 4.63184 93.2075 4.46191 93.4741 4.3418C93.7407 4.21875 94.0396 4.15723 94.3706 4.15723C94.7046 4.15723 95.0049 4.21875 95.2715 4.3418C95.541 4.46191 95.7695 4.63184 95.957 4.85156C96.1475 5.06836 96.2925 5.32471 96.3921 5.62061C96.4917 5.91357 96.5415 6.23145 96.5415 6.57422V6.67529C96.5415 7.01807 96.4917 7.33594 96.3921 7.62891C96.2925 7.92188 96.1475 8.17822 95.957 8.39795C95.7695 8.61475 95.5425 8.78467 95.2759 8.90771C95.0122 9.02783 94.7134 9.08789 94.3794 9.08789C94.0454 9.08789 93.7451 9.02783 93.4785 8.90771C93.2119 8.78467 92.9834 8.61475 92.793 8.39795C92.6055 8.17822 92.4619 7.92188 92.3623 7.62891C92.2627 7.33594 92.2129 7.01807 92.2129 6.67529ZM93.0259 6.57422V6.67529C93.0259 6.9126 93.0537 7.13672 93.1094 7.34766C93.165 7.55566 93.2485 7.74023 93.3599 7.90137C93.4741 8.0625 93.6162 8.18994 93.7861 8.28369C93.9561 8.37451 94.1538 8.41992 94.3794 8.41992C94.6021 8.41992 94.7969 8.37451 94.9639 8.28369C95.1338 8.18994 95.2744 8.0625 95.3857 7.90137C95.4971 7.74023 95.5806 7.55566 95.6362 7.34766C95.6948 7.13672 95.7241 6.9126 95.7241 6.67529V6.57422C95.7241 6.33984 95.6948 6.11865 95.6362 5.91064C95.5806 5.69971 95.4956 5.51367 95.3813 5.35254C95.27 5.18848 95.1294 5.05957 94.9595 4.96582C94.7925 4.87207 94.5962 4.8252 94.3706 4.8252C94.1479 4.8252 93.9517 4.87207 93.7817 4.96582C93.6147 5.05957 93.4741 5.18848 93.3599 5.35254C93.2485 5.51367 93.165 5.69971 93.1094 5.91064C93.0537 6.11865 93.0259 6.33984 93.0259 6.57422ZM99.4023 4.24512V9H98.585V4.24512H99.4023ZM100.998 4.24512V4.9043H97.0205V4.24512H100.998ZM102.681 4.24512V9H101.868V4.24512H102.681ZM105.801 4.24512L103.546 6.96973H102.408L102.285 6.25781H103.217L104.812 4.24512H105.801ZM104.926 9L103.177 6.84668L103.7 6.25781L105.959 9H104.926ZM108.002 8.50781L109.325 4.24512H110.195L108.288 9.73389C108.244 9.85107 108.186 9.97705 108.112 10.1118C108.042 10.2495 107.951 10.3799 107.84 10.5029C107.729 10.626 107.594 10.7256 107.436 10.8018C107.28 10.8809 107.094 10.9204 106.877 10.9204C106.813 10.9204 106.731 10.9116 106.631 10.894C106.532 10.8765 106.461 10.8618 106.42 10.8501L106.416 10.1909C106.439 10.1938 106.476 10.1968 106.526 10.1997C106.579 10.2056 106.615 10.2085 106.636 10.2085C106.82 10.2085 106.977 10.1836 107.106 10.1338C107.235 10.0869 107.343 10.0063 107.431 9.89209C107.522 9.78076 107.6 9.62695 107.664 9.43066L108.002 8.50781ZM107.031 4.24512L108.266 7.93652L108.477 8.79346L107.893 9.09229L106.144 4.24512H107.031ZM116.33 4.24512V4.91748H113.926V4.24512H116.33ZM114.045 4.24512V9H113.232V4.24512H114.045ZM117.051 4.24512V9H116.233V4.24512H117.051ZM120.329 9.08789C119.998 9.08789 119.698 9.03223 119.428 8.9209C119.162 8.80664 118.932 8.64697 118.738 8.44189C118.548 8.23682 118.401 7.99365 118.299 7.7124C118.196 7.43115 118.145 7.12354 118.145 6.78955V6.60498C118.145 6.21826 118.202 5.87402 118.316 5.57227C118.431 5.26758 118.586 5.00977 118.782 4.79883C118.979 4.58789 119.201 4.42822 119.45 4.31982C119.699 4.21143 119.957 4.15723 120.224 4.15723C120.563 4.15723 120.856 4.21582 121.103 4.33301C121.352 4.4502 121.555 4.61426 121.713 4.8252C121.872 5.0332 121.989 5.2793 122.065 5.56348C122.141 5.84473 122.179 6.15234 122.179 6.48633V6.85107H118.628V6.1875H121.366V6.12598C121.354 5.91504 121.311 5.70996 121.234 5.51074C121.161 5.31152 121.044 5.14746 120.883 5.01855C120.722 4.88965 120.502 4.8252 120.224 4.8252C120.039 4.8252 119.869 4.86475 119.714 4.94385C119.559 5.02002 119.425 5.13428 119.314 5.28662C119.203 5.43896 119.116 5.625 119.055 5.84473C118.993 6.06445 118.962 6.31787 118.962 6.60498V6.78955C118.962 7.01514 118.993 7.22754 119.055 7.42676C119.119 7.62305 119.211 7.7959 119.332 7.94531C119.455 8.09473 119.603 8.21191 119.775 8.29688C119.951 8.38184 120.15 8.42432 120.373 8.42432C120.66 8.42432 120.903 8.36572 121.103 8.24854C121.302 8.13135 121.476 7.97461 121.625 7.77832L122.118 8.16943C122.015 8.32471 121.885 8.47266 121.727 8.61328C121.568 8.75391 121.374 8.86816 121.142 8.95605C120.914 9.04395 120.643 9.08789 120.329 9.08789ZM123.941 5.15918V10.8281H123.124V4.24512H123.871L123.941 5.15918ZM127.145 6.58301V6.67529C127.145 7.021 127.104 7.3418 127.022 7.6377C126.94 7.93066 126.82 8.18555 126.662 8.40234C126.506 8.61914 126.314 8.7876 126.086 8.90771C125.857 9.02783 125.595 9.08789 125.299 9.08789C124.998 9.08789 124.731 9.03809 124.5 8.93848C124.268 8.83887 124.072 8.69385 123.911 8.50342C123.75 8.31299 123.621 8.08447 123.524 7.81787C123.43 7.55127 123.366 7.25098 123.331 6.91699V6.4248C123.366 6.07324 123.432 5.7583 123.528 5.47998C123.625 5.20166 123.752 4.96436 123.911 4.76807C124.072 4.56885 124.267 4.41797 124.495 4.31543C124.724 4.20996 124.987 4.15723 125.286 4.15723C125.585 4.15723 125.85 4.21582 126.082 4.33301C126.313 4.44727 126.508 4.61133 126.666 4.8252C126.824 5.03906 126.943 5.29541 127.022 5.59424C127.104 5.89014 127.145 6.21973 127.145 6.58301ZM126.328 6.67529V6.58301C126.328 6.3457 126.303 6.12305 126.253 5.91504C126.203 5.7041 126.125 5.51953 126.02 5.36133C125.917 5.2002 125.786 5.07422 125.625 4.9834C125.463 4.88965 125.271 4.84277 125.049 4.84277C124.844 4.84277 124.665 4.87793 124.513 4.94824C124.363 5.01855 124.236 5.11377 124.13 5.23389C124.025 5.35107 123.938 5.48584 123.871 5.63818C123.807 5.7876 123.758 5.94287 123.726 6.104V7.24219C123.785 7.44727 123.867 7.64062 123.972 7.82227C124.078 8.00098 124.218 8.146 124.394 8.25732C124.57 8.36572 124.791 8.41992 125.058 8.41992C125.277 8.41992 125.466 8.37451 125.625 8.28369C125.786 8.18994 125.917 8.0625 126.02 7.90137C126.125 7.74023 126.203 7.55566 126.253 7.34766C126.303 7.13672 126.328 6.9126 126.328 6.67529ZM130.085 8.41992C130.278 8.41992 130.457 8.38037 130.621 8.30127C130.785 8.22217 130.92 8.11377 131.025 7.97607C131.131 7.83545 131.191 7.67578 131.206 7.49707H131.979C131.964 7.77832 131.869 8.04053 131.693 8.28369C131.521 8.52393 131.293 8.71875 131.012 8.86816C130.731 9.01465 130.422 9.08789 130.085 9.08789C129.728 9.08789 129.416 9.0249 129.149 8.89893C128.885 8.77295 128.666 8.6001 128.49 8.38037C128.317 8.16064 128.187 7.90869 128.099 7.62451C128.014 7.3374 127.971 7.03418 127.971 6.71484V6.53027C127.971 6.21094 128.014 5.90918 128.099 5.625C128.187 5.33789 128.317 5.08447 128.49 4.86475C128.666 4.64502 128.885 4.47217 129.149 4.34619C129.416 4.22021 129.728 4.15723 130.085 4.15723C130.457 4.15723 130.782 4.2334 131.061 4.38574C131.339 4.53516 131.557 4.74023 131.715 5.00098C131.876 5.25879 131.964 5.55176 131.979 5.87988H131.206C131.191 5.68359 131.135 5.50635 131.039 5.34814C130.945 5.18994 130.816 5.06396 130.652 4.97021C130.491 4.87354 130.302 4.8252 130.085 4.8252C129.836 4.8252 129.626 4.875 129.457 4.97461C129.29 5.07129 129.156 5.20312 129.057 5.37012C128.96 5.53418 128.89 5.71729 128.846 5.91943C128.805 6.11865 128.784 6.32227 128.784 6.53027V6.71484C128.784 6.92285 128.805 7.12793 128.846 7.33008C128.887 7.53223 128.956 7.71533 129.052 7.87939C129.152 8.04346 129.285 8.17529 129.452 8.2749C129.622 8.37158 129.833 8.41992 130.085 8.41992ZM132.678 6.67529V6.57422C132.678 6.23145 132.728 5.91357 132.827 5.62061C132.927 5.32471 133.07 5.06836 133.258 4.85156C133.445 4.63184 133.672 4.46191 133.939 4.3418C134.206 4.21875 134.504 4.15723 134.835 4.15723C135.169 4.15723 135.47 4.21875 135.736 4.3418C136.006 4.46191 136.234 4.63184 136.422 4.85156C136.612 5.06836 136.757 5.32471 136.857 5.62061C136.957 5.91357 137.006 6.23145 137.006 6.57422V6.67529C137.006 7.01807 136.957 7.33594 136.857 7.62891C136.757 7.92188 136.612 8.17822 136.422 8.39795C136.234 8.61475 136.007 8.78467 135.741 8.90771C135.477 9.02783 135.178 9.08789 134.844 9.08789C134.51 9.08789 134.21 9.02783 133.943 8.90771C133.677 8.78467 133.448 8.61475 133.258 8.39795C133.07 8.17822 132.927 7.92188 132.827 7.62891C132.728 7.33594 132.678 7.01807 132.678 6.67529ZM133.491 6.57422V6.67529C133.491 6.9126 133.519 7.13672 133.574 7.34766C133.63 7.55566 133.713 7.74023 133.825 7.90137C133.939 8.0625 134.081 8.18994 134.251 8.28369C134.421 8.37451 134.619 8.41992 134.844 8.41992C135.067 8.41992 135.262 8.37451 135.429 8.28369C135.599 8.18994 135.739 8.0625 135.851 7.90137C135.962 7.74023 136.045 7.55566 136.101 7.34766C136.16 7.13672 136.189 6.9126 136.189 6.67529V6.57422C136.189 6.33984 136.16 6.11865 136.101 5.91064C136.045 5.69971 135.96 5.51367 135.846 5.35254C135.735 5.18848 135.594 5.05957 135.424 4.96582C135.257 4.87207 135.061 4.8252 134.835 4.8252C134.613 4.8252 134.417 4.87207 134.247 4.96582C134.08 5.05957 133.939 5.18848 133.825 5.35254C133.713 5.51367 133.63 5.69971 133.574 5.91064C133.519 6.11865 133.491 6.33984 133.491 6.57422ZM141.251 6.30615V6.96533H138.738V6.30615H141.251ZM138.909 4.24512V9H138.096V4.24512H138.909ZM141.911 4.24512V9H141.093V4.24512H141.911ZM146.024 8.18701V5.73926C146.024 5.55176 145.986 5.38916 145.91 5.25146C145.836 5.11084 145.725 5.00244 145.576 4.92627C145.426 4.8501 145.242 4.81201 145.022 4.81201C144.817 4.81201 144.637 4.84717 144.481 4.91748C144.329 4.98779 144.209 5.08008 144.121 5.19434C144.036 5.30859 143.994 5.43164 143.994 5.56348H143.181C143.181 5.39355 143.225 5.2251 143.312 5.05811C143.4 4.89111 143.526 4.74023 143.69 4.60547C143.857 4.46777 144.057 4.35938 144.288 4.28027C144.522 4.19824 144.783 4.15723 145.07 4.15723C145.416 4.15723 145.721 4.21582 145.984 4.33301C146.251 4.4502 146.459 4.62744 146.608 4.86475C146.761 5.09912 146.837 5.39355 146.837 5.74805V7.96289C146.837 8.12109 146.85 8.28955 146.876 8.46826C146.906 8.64697 146.948 8.80078 147.004 8.92969V9H146.156C146.115 8.90625 146.083 8.78174 146.059 8.62646C146.036 8.46826 146.024 8.32178 146.024 8.18701ZM146.165 6.11719L146.173 6.68848H145.352C145.12 6.68848 144.914 6.70752 144.732 6.74561C144.55 6.78076 144.398 6.83496 144.275 6.9082C144.152 6.98145 144.058 7.07373 143.994 7.18506C143.929 7.29346 143.897 7.4209 143.897 7.56738C143.897 7.7168 143.931 7.85303 143.998 7.97607C144.065 8.09912 144.167 8.19727 144.301 8.27051C144.439 8.34082 144.607 8.37598 144.807 8.37598C145.056 8.37598 145.275 8.32324 145.466 8.21777C145.656 8.1123 145.807 7.9834 145.918 7.83105C146.033 7.67871 146.094 7.53076 146.103 7.38721L146.45 7.77832C146.43 7.90137 146.374 8.0376 146.283 8.18701C146.192 8.33643 146.071 8.47998 145.918 8.61768C145.769 8.75244 145.59 8.86523 145.382 8.95605C145.177 9.04395 144.946 9.08789 144.688 9.08789C144.366 9.08789 144.083 9.0249 143.84 8.89893C143.6 8.77295 143.412 8.60449 143.277 8.39355C143.146 8.17969 143.08 7.94092 143.08 7.67725C143.08 7.42236 143.129 7.19824 143.229 7.00488C143.329 6.80859 143.472 6.646 143.66 6.51709C143.847 6.38525 144.073 6.28564 144.336 6.21826C144.6 6.15088 144.895 6.11719 145.22 6.11719H146.165ZM151.293 4.24512V4.91748H148.995V4.24512H151.293ZM152.009 4.24512V9H151.196V4.24512H152.009ZM148.797 4.24512H149.614L149.491 6.53906C149.471 6.89355 149.437 7.20703 149.39 7.47949C149.346 7.74902 149.285 7.98047 149.206 8.17383C149.129 8.36719 149.033 8.52539 148.916 8.64844C148.801 8.76855 148.664 8.85791 148.502 8.9165C148.341 8.97217 148.155 9 147.944 9H147.689V8.28369L147.865 8.27051C147.991 8.26172 148.098 8.23242 148.186 8.18262C148.277 8.13281 148.353 8.05957 148.415 7.96289C148.476 7.86328 148.526 7.73584 148.564 7.58057C148.605 7.42529 148.636 7.24072 148.656 7.02686C148.68 6.81299 148.697 6.56396 148.709 6.27979L148.797 4.24512ZM153.987 5.87988H155.415C155.799 5.87988 156.123 5.94727 156.386 6.08203C156.65 6.21387 156.849 6.39697 156.984 6.63135C157.122 6.86279 157.19 7.12646 157.19 7.42236C157.19 7.64209 157.152 7.84863 157.076 8.04199C157 8.23242 156.886 8.39941 156.733 8.54297C156.584 8.68652 156.398 8.79932 156.175 8.88135C155.956 8.96045 155.702 9 155.415 9H153.394V4.24512H154.207V8.33203H155.415C155.649 8.33203 155.837 8.28955 155.978 8.20459C156.118 8.11963 156.219 8.00977 156.281 7.875C156.342 7.74023 156.373 7.59961 156.373 7.45312C156.373 7.30957 156.342 7.16895 156.281 7.03125C156.219 6.89355 156.118 6.7793 155.978 6.68848C155.837 6.59473 155.649 6.54785 155.415 6.54785H153.987V5.87988ZM161.431 6.30615V6.96533H158.917V6.30615H161.431ZM159.089 4.24512V9H158.276V4.24512H159.089ZM162.09 4.24512V9H161.273V4.24512H162.09ZM164.068 5.87988H165.496C165.88 5.87988 166.204 5.94727 166.467 6.08203C166.731 6.21387 166.93 6.39697 167.065 6.63135C167.203 6.86279 167.271 7.12646 167.271 7.42236C167.271 7.64209 167.233 7.84863 167.157 8.04199C167.081 8.23242 166.967 8.39941 166.814 8.54297C166.665 8.68652 166.479 8.79932 166.256 8.88135C166.037 8.96045 165.783 9 165.496 9H163.475V4.24512H164.288V8.33203H165.496C165.73 8.33203 165.918 8.28955 166.059 8.20459C166.199 8.11963 166.3 8.00977 166.362 7.875C166.423 7.74023 166.454 7.59961 166.454 7.45312C166.454 7.30957 166.423 7.16895 166.362 7.03125C166.3 6.89355 166.199 6.7793 166.059 6.68848C165.918 6.59473 165.73 6.54785 165.496 6.54785H164.068V5.87988ZM168.963 4.24512V9H168.15V4.24512H168.963ZM170.937 4.24512L171.978 5.97656L173.033 4.24512H173.986L172.431 6.5918L174.035 9H173.094L171.996 7.21582L170.897 9H169.952L171.552 6.5918L170 4.24512H170.937ZM177.941 4.24512H178.754L178.684 6.0249C178.667 6.47607 178.615 6.86572 178.53 7.19385C178.445 7.52197 178.337 7.80176 178.205 8.0332C178.073 8.26172 177.925 8.45361 177.761 8.60889C177.6 8.76416 177.433 8.89453 177.26 9H176.856L176.878 8.33643L177.045 8.33203C177.142 8.21777 177.235 8.10059 177.326 7.98047C177.417 7.85742 177.5 7.7124 177.577 7.54541C177.653 7.37549 177.716 7.16895 177.766 6.92578C177.818 6.67969 177.852 6.37939 177.867 6.0249L177.941 4.24512ZM178.144 4.24512H181.004V9H180.191V4.99658H178.144V4.24512ZM176.671 8.33203H181.615V10.4019H180.802V9H177.484V10.4019H176.667L176.671 8.33203ZM185.32 8.18701V5.73926C185.32 5.55176 185.282 5.38916 185.206 5.25146C185.132 5.11084 185.021 5.00244 184.872 4.92627C184.722 4.8501 184.538 4.81201 184.318 4.81201C184.113 4.81201 183.933 4.84717 183.777 4.91748C183.625 4.98779 183.505 5.08008 183.417 5.19434C183.332 5.30859 183.29 5.43164 183.29 5.56348H182.477C182.477 5.39355 182.521 5.2251 182.608 5.05811C182.696 4.89111 182.822 4.74023 182.986 4.60547C183.153 4.46777 183.353 4.35938 183.584 4.28027C183.818 4.19824 184.079 4.15723 184.366 4.15723C184.712 4.15723 185.017 4.21582 185.28 4.33301C185.547 4.4502 185.755 4.62744 185.904 4.86475C186.057 5.09912 186.133 5.39355 186.133 5.74805V7.96289C186.133 8.12109 186.146 8.28955 186.172 8.46826C186.202 8.64697 186.244 8.80078 186.3 8.92969V9H185.452C185.411 8.90625 185.378 8.78174 185.355 8.62646C185.332 8.46826 185.32 8.32178 185.32 8.18701ZM185.46 6.11719L185.469 6.68848H184.647C184.416 6.68848 184.209 6.70752 184.028 6.74561C183.846 6.78076 183.694 6.83496 183.571 6.9082C183.448 6.98145 183.354 7.07373 183.29 7.18506C183.225 7.29346 183.193 7.4209 183.193 7.56738C183.193 7.7168 183.227 7.85303 183.294 7.97607C183.361 8.09912 183.462 8.19727 183.597 8.27051C183.735 8.34082 183.903 8.37598 184.103 8.37598C184.352 8.37598 184.571 8.32324 184.762 8.21777C184.952 8.1123 185.103 7.9834 185.214 7.83105C185.329 7.67871 185.39 7.53076 185.399 7.38721L185.746 7.77832C185.726 7.90137 185.67 8.0376 185.579 8.18701C185.488 8.33643 185.367 8.47998 185.214 8.61768C185.065 8.75244 184.886 8.86523 184.678 8.95605C184.473 9.04395 184.242 9.08789 183.984 9.08789C183.662 9.08789 183.379 9.0249 183.136 8.89893C182.896 8.77295 182.708 8.60449 182.573 8.39355C182.441 8.17969 182.375 7.94092 182.375 7.67725C182.375 7.42236 182.425 7.19824 182.525 7.00488C182.625 6.80859 182.768 6.646 182.956 6.51709C183.143 6.38525 183.369 6.28564 183.632 6.21826C183.896 6.15088 184.19 6.11719 184.516 6.11719H185.46ZM190.637 6.30615V6.96533H188.124V6.30615H190.637ZM188.295 4.24512V9H187.482V4.24512H188.295ZM191.296 4.24512V9H190.479V4.24512H191.296ZM195.832 6.30615V6.96533H193.318V6.30615H195.832ZM193.489 4.24512V9H192.676V4.24512H193.489ZM196.491 4.24512V9H195.673V4.24512H196.491ZM198.468 5.87988H199.896C200.28 5.87988 200.604 5.94727 200.868 6.08203C201.131 6.21387 201.331 6.39697 201.465 6.63135C201.603 6.86279 201.672 7.12646 201.672 7.42236C201.672 7.64209 201.634 7.84863 201.558 8.04199C201.481 8.23242 201.367 8.39941 201.215 8.54297C201.065 8.68652 200.879 8.79932 200.657 8.88135C200.437 8.96045 200.184 9 199.896 9H197.875V4.24512H198.688V8.33203H199.896C200.131 8.33203 200.318 8.28955 200.459 8.20459C200.6 8.11963 200.701 8.00977 200.762 7.875C200.824 7.74023 200.854 7.59961 200.854 7.45312C200.854 7.30957 200.824 7.16895 200.762 7.03125C200.701 6.89355 200.6 6.7793 200.459 6.68848C200.318 6.59473 200.131 6.54785 199.896 6.54785H198.468V5.87988ZM203.364 4.24512V9H202.551V4.24512H203.364ZM205.337 4.24512L206.378 5.97656L207.433 4.24512H208.387L206.831 6.5918L208.435 9H207.495L206.396 7.21582L205.297 9H204.353L205.952 6.5918L204.401 4.24512H205.337Z" fill="#7D808A"/>
<path d="M0.367188 9.87891H208.633V10.3184H0.367188V9.87891Z" fill="#7D808A"/>
<path d="M39.8872 23.6016V30H39.0435V24.2959H35.8882V30H35.04V23.6016H39.8872ZM41.0869 27.6753V27.5742C41.0869 27.2314 41.1367 26.9136 41.2363 26.6206C41.3359 26.3247 41.4795 26.0684 41.667 25.8516C41.8545 25.6318 42.0815 25.4619 42.3481 25.3418C42.6147 25.2188 42.9136 25.1572 43.2446 25.1572C43.5786 25.1572 43.8789 25.2188 44.1455 25.3418C44.415 25.4619 44.6436 25.6318 44.8311 25.8516C45.0215 26.0684 45.1665 26.3247 45.2661 26.6206C45.3657 26.9136 45.4155 27.2314 45.4155 27.5742V27.6753C45.4155 28.0181 45.3657 28.3359 45.2661 28.6289C45.1665 28.9219 45.0215 29.1782 44.8311 29.3979C44.6436 29.6147 44.4165 29.7847 44.1499 29.9077C43.8862 30.0278 43.5874 30.0879 43.2534 30.0879C42.9194 30.0879 42.6191 30.0278 42.3525 29.9077C42.0859 29.7847 41.8574 29.6147 41.667 29.3979C41.4795 29.1782 41.3359 28.9219 41.2363 28.6289C41.1367 28.3359 41.0869 28.0181 41.0869 27.6753ZM41.8999 27.5742V27.6753C41.8999 27.9126 41.9277 28.1367 41.9834 28.3477C42.0391 28.5557 42.1226 28.7402 42.2339 28.9014C42.3481 29.0625 42.4902 29.1899 42.6602 29.2837C42.8301 29.3745 43.0278 29.4199 43.2534 29.4199C43.4761 29.4199 43.6709 29.3745 43.8379 29.2837C44.0078 29.1899 44.1484 29.0625 44.2598 28.9014C44.3711 28.7402 44.4546 28.5557 44.5103 28.3477C44.5688 28.1367 44.5981 27.9126 44.5981 27.6753V27.5742C44.5981 27.3398 44.5688 27.1187 44.5103 26.9106C44.4546 26.6997 44.3696 26.5137 44.2554 26.3525C44.144 26.1885 44.0034 26.0596 43.8335 25.9658C43.6665 25.8721 43.4702 25.8252 43.2446 25.8252C43.022 25.8252 42.8257 25.8721 42.6558 25.9658C42.4888 26.0596 42.3481 26.1885 42.2339 26.3525C42.1226 26.5137 42.0391 26.6997 41.9834 26.9106C41.9277 27.1187 41.8999 27.3398 41.8999 27.5742ZM49.542 25.2451V25.9175H47.2437V25.2451H49.542ZM50.2583 25.2451V30H49.4453V25.2451H50.2583ZM47.0459 25.2451H47.8633L47.7402 27.5391C47.7197 27.8936 47.686 28.207 47.6392 28.4795C47.5952 28.749 47.5337 28.9805 47.4546 29.1738C47.3784 29.3672 47.2817 29.5254 47.1646 29.6484C47.0503 29.7686 46.9126 29.8579 46.7515 29.9165C46.5903 29.9722 46.4043 30 46.1934 30H45.9385V29.2837L46.1143 29.2705C46.2402 29.2617 46.3472 29.2324 46.4351 29.1826C46.5259 29.1328 46.6021 29.0596 46.6636 28.9629C46.7251 28.8633 46.7749 28.7358 46.813 28.5806C46.854 28.4253 46.8848 28.2407 46.9053 28.0269C46.9287 27.813 46.9463 27.564 46.958 27.2798L47.0459 25.2451ZM52.4468 28.7124L54.6396 25.2451H55.457V30H54.6396V26.5327L52.4468 30H51.6382V25.2451H52.4468V28.7124ZM58.7002 25.2451V30H57.8828V25.2451H58.7002ZM60.2954 25.2451V25.9043H56.3184V25.2451H60.2954ZM61.9741 28.7124L64.167 25.2451H64.9844V30H64.167V26.5327L61.9741 30H61.1655V25.2451H61.9741V28.7124ZM67.1729 25.2451V30H66.3599V25.2451H67.1729ZM70.293 25.2451L68.0386 27.9697H66.9004L66.7773 27.2578H67.709L69.3042 25.2451H70.293ZM69.4185 30L67.6694 27.8467L68.1924 27.2578L70.4512 30H69.4185ZM73.9624 29.187V26.7393C73.9624 26.5518 73.9243 26.3892 73.8481 26.2515C73.7749 26.1108 73.6636 26.0024 73.5142 25.9263C73.3647 25.8501 73.1802 25.812 72.9604 25.812C72.7554 25.812 72.5752 25.8472 72.4199 25.9175C72.2676 25.9878 72.1475 26.0801 72.0596 26.1943C71.9746 26.3086 71.9321 26.4316 71.9321 26.5635H71.1191C71.1191 26.3936 71.1631 26.2251 71.251 26.0581C71.3389 25.8911 71.4648 25.7402 71.6289 25.6055C71.7959 25.4678 71.9951 25.3594 72.2266 25.2803C72.4609 25.1982 72.7217 25.1572 73.0088 25.1572C73.3545 25.1572 73.6592 25.2158 73.9229 25.333C74.1895 25.4502 74.3975 25.6274 74.5469 25.8647C74.6992 26.0991 74.7754 26.3936 74.7754 26.748V28.9629C74.7754 29.1211 74.7886 29.2896 74.8149 29.4683C74.8442 29.647 74.8867 29.8008 74.9424 29.9297V30H74.0942C74.0532 29.9062 74.021 29.7817 73.9976 29.6265C73.9741 29.4683 73.9624 29.3218 73.9624 29.187ZM74.103 27.1172L74.1118 27.6885H73.29C73.0586 27.6885 72.8521 27.7075 72.6704 27.7456C72.4888 27.7808 72.3364 27.835 72.2134 27.9082C72.0903 27.9814 71.9966 28.0737 71.9321 28.1851C71.8677 28.2935 71.8354 28.4209 71.8354 28.5674C71.8354 28.7168 71.8691 28.853 71.9365 28.9761C72.0039 29.0991 72.105 29.1973 72.2397 29.2705C72.3774 29.3408 72.5459 29.376 72.7451 29.376C72.9941 29.376 73.2139 29.3232 73.4043 29.2178C73.5947 29.1123 73.7456 28.9834 73.8569 28.8311C73.9712 28.6787 74.0327 28.5308 74.0415 28.3872L74.3887 28.7783C74.3682 28.9014 74.3125 29.0376 74.2217 29.187C74.1309 29.3364 74.0093 29.48 73.8569 29.6177C73.7075 29.7524 73.5288 29.8652 73.3208 29.9561C73.1157 30.0439 72.8843 30.0879 72.6265 30.0879C72.3042 30.0879 72.0215 30.0249 71.7783 29.8989C71.5381 29.7729 71.3506 29.6045 71.2158 29.3936C71.084 29.1797 71.0181 28.9409 71.0181 28.6772C71.0181 28.4224 71.0679 28.1982 71.1675 28.0049C71.2671 27.8086 71.4106 27.646 71.5981 27.5171C71.7856 27.3853 72.0112 27.2856 72.2749 27.2183C72.5386 27.1509 72.833 27.1172 73.1582 27.1172H74.103ZM79.1699 25.2451V30H78.3569V25.2451H79.1699ZM82.29 25.2451L80.0356 27.9697H78.8975L78.7744 27.2578H79.7061L81.3013 25.2451H82.29ZM81.4155 30L79.6665 27.8467L80.1895 27.2578L82.4482 30H81.4155ZM82.8438 27.6753V27.5742C82.8438 27.2314 82.8936 26.9136 82.9932 26.6206C83.0928 26.3247 83.2363 26.0684 83.4238 25.8516C83.6113 25.6318 83.8384 25.4619 84.105 25.3418C84.3716 25.2188 84.6704 25.1572 85.0015 25.1572C85.3354 25.1572 85.6357 25.2188 85.9023 25.3418C86.1719 25.4619 86.4004 25.6318 86.5879 25.8516C86.7783 26.0684 86.9233 26.3247 87.0229 26.6206C87.1226 26.9136 87.1724 27.2314 87.1724 27.5742V27.6753C87.1724 28.0181 87.1226 28.3359 87.0229 28.6289C86.9233 28.9219 86.7783 29.1782 86.5879 29.3979C86.4004 29.6147 86.1733 29.7847 85.9067 29.9077C85.6431 30.0278 85.3442 30.0879 85.0103 30.0879C84.6763 30.0879 84.376 30.0278 84.1094 29.9077C83.8428 29.7847 83.6143 29.6147 83.4238 29.3979C83.2363 29.1782 83.0928 28.9219 82.9932 28.6289C82.8936 28.3359 82.8438 28.0181 82.8438 27.6753ZM83.6567 27.5742V27.6753C83.6567 27.9126 83.6846 28.1367 83.7402 28.3477C83.7959 28.5557 83.8794 28.7402 83.9907 28.9014C84.105 29.0625 84.2471 29.1899 84.417 29.2837C84.5869 29.3745 84.7847 29.4199 85.0103 29.4199C85.2329 29.4199 85.4277 29.3745 85.5947 29.2837C85.7646 29.1899 85.9053 29.0625 86.0166 28.9014C86.1279 28.7402 86.2114 28.5557 86.2671 28.3477C86.3257 28.1367 86.355 27.9126 86.355 27.6753V27.5742C86.355 27.3398 86.3257 27.1187 86.2671 26.9106C86.2114 26.6997 86.1265 26.5137 86.0122 26.3525C85.9009 26.1885 85.7603 26.0596 85.5903 25.9658C85.4233 25.8721 85.2271 25.8252 85.0015 25.8252C84.7788 25.8252 84.5825 25.8721 84.4126 25.9658C84.2456 26.0596 84.105 26.1885 83.9907 26.3525C83.8794 26.5137 83.7959 26.6997 83.7402 26.9106C83.6846 27.1187 83.6567 27.3398 83.6567 27.5742ZM91.4175 27.3062V27.9653H88.9038V27.3062H91.4175ZM89.0752 25.2451V30H88.2622V25.2451H89.0752ZM92.0767 25.2451V30H91.2593V25.2451H92.0767ZM98.853 27.7061V27.7983C98.853 28.1323 98.8164 28.4399 98.7432 28.7212C98.6699 28.9995 98.5601 29.2412 98.4136 29.4463C98.27 29.6514 98.0913 29.811 97.8774 29.9253C97.6636 30.0366 97.416 30.0923 97.1348 30.0923C96.9033 30.0923 96.6997 30.0615 96.5239 30C96.3481 29.9355 96.1987 29.8433 96.0757 29.7231C95.9556 29.603 95.8589 29.4595 95.7856 29.2925C95.7153 29.1226 95.667 28.9321 95.6406 28.7212V26.6118C95.667 26.3862 95.7153 26.1841 95.7856 26.0054C95.8589 25.8267 95.9556 25.6743 96.0757 25.5483C96.1987 25.4224 96.3467 25.3257 96.5195 25.2583C96.6924 25.1909 96.8945 25.1572 97.126 25.1572C97.3545 25.1572 97.5596 25.1982 97.7412 25.2803C97.9258 25.3594 98.0869 25.4736 98.2246 25.623C98.3652 25.7725 98.481 25.9526 98.5718 26.1636C98.6655 26.3716 98.7358 26.606 98.7827 26.8667C98.8296 27.1274 98.853 27.4072 98.853 27.7061ZM98.04 27.7983V27.7061C98.04 27.501 98.0254 27.3062 97.9961 27.1216C97.9697 26.9341 97.9272 26.7627 97.8687 26.6074C97.813 26.4492 97.7397 26.3115 97.6489 26.1943C97.5581 26.0771 97.4482 25.9863 97.3193 25.9219C97.1934 25.8574 97.0483 25.8252 96.8843 25.8252C96.7085 25.8252 96.562 25.8472 96.4448 25.8911C96.3306 25.9351 96.2412 25.9937 96.1768 26.0669C96.1123 26.1372 96.0654 26.2119 96.0361 26.291V29.0464C96.0713 29.1108 96.1226 29.1724 96.1899 29.231C96.2573 29.2866 96.3481 29.3335 96.4624 29.3716C96.5767 29.4067 96.7202 29.4243 96.8931 29.4243C97.0981 29.4243 97.2725 29.3833 97.416 29.3013C97.5625 29.2163 97.6812 29.0991 97.772 28.9497C97.8657 28.8003 97.9331 28.6274 97.9741 28.4312C98.0181 28.2349 98.04 28.0239 98.04 27.7983ZM93.2061 27.7983V27.7061C93.2061 27.4072 93.2295 27.1274 93.2764 26.8667C93.3232 26.606 93.3936 26.3716 93.4873 26.1636C93.5811 25.9526 93.6968 25.7725 93.8345 25.623C93.9751 25.4736 94.1362 25.3594 94.3179 25.2803C94.5024 25.1982 94.709 25.1572 94.9375 25.1572C95.1631 25.1572 95.3594 25.1909 95.5264 25.2583C95.6963 25.3257 95.8398 25.4224 95.957 25.5483C96.0742 25.6743 96.168 25.8267 96.2383 26.0054C96.3086 26.1841 96.3584 26.3862 96.3877 26.6118V28.6377C96.3613 28.8604 96.313 29.061 96.2427 29.2397C96.1724 29.4185 96.0786 29.5723 95.9614 29.7012C95.8442 29.8271 95.6992 29.9238 95.5264 29.9912C95.3564 30.0586 95.1572 30.0923 94.9287 30.0923C94.6475 30.0923 94.3999 30.0366 94.186 29.9253C93.9722 29.811 93.792 29.6514 93.6455 29.4463C93.502 29.2412 93.3921 28.9995 93.3159 28.7212C93.2427 28.4399 93.2061 28.1323 93.2061 27.7983ZM94.0234 27.7061V27.7983C94.0234 28.0239 94.0425 28.2349 94.0806 28.4312C94.1216 28.6274 94.1846 28.8003 94.2695 28.9497C94.3574 29.0991 94.4717 29.2163 94.6123 29.3013C94.7529 29.3833 94.9258 29.4243 95.1309 29.4243C95.3066 29.4243 95.4517 29.4023 95.5659 29.3584C95.6802 29.3145 95.771 29.2573 95.8384 29.187C95.9058 29.1167 95.957 29.0435 95.9922 28.9673V26.291C95.9629 26.2119 95.9146 26.1372 95.8472 26.0669C95.7827 25.9937 95.6934 25.9351 95.5791 25.8911C95.4648 25.8472 95.3184 25.8252 95.1396 25.8252C94.9346 25.8252 94.7603 25.875 94.6167 25.9746C94.4731 26.0742 94.3574 26.2104 94.2695 26.3833C94.1846 26.5562 94.1216 26.7568 94.0806 26.9854C94.0425 27.2109 94.0234 27.4512 94.0234 27.7061ZM95.5879 31.8281V23.25H96.4053V31.8281H95.5879ZM101.89 30.0879C101.559 30.0879 101.258 30.0322 100.989 29.9209C100.722 29.8066 100.492 29.647 100.299 29.4419C100.108 29.2368 99.9619 28.9937 99.8594 28.7124C99.7568 28.4312 99.7056 28.1235 99.7056 27.7896V27.605C99.7056 27.2183 99.7627 26.874 99.877 26.5723C99.9912 26.2676 100.146 26.0098 100.343 25.7988C100.539 25.5879 100.762 25.4282 101.011 25.3198C101.26 25.2114 101.518 25.1572 101.784 25.1572C102.124 25.1572 102.417 25.2158 102.663 25.333C102.912 25.4502 103.116 25.6143 103.274 25.8252C103.432 26.0332 103.549 26.2793 103.625 26.5635C103.702 26.8447 103.74 27.1523 103.74 27.4863V27.8511H100.189V27.1875H102.927V27.126C102.915 26.915 102.871 26.71 102.795 26.5107C102.722 26.3115 102.604 26.1475 102.443 26.0186C102.282 25.8896 102.062 25.8252 101.784 25.8252C101.6 25.8252 101.43 25.8647 101.274 25.9438C101.119 26.02 100.986 26.1343 100.875 26.2866C100.763 26.439 100.677 26.625 100.615 26.8447C100.554 27.0645 100.523 27.3179 100.523 27.605V27.7896C100.523 28.0151 100.554 28.2275 100.615 28.4268C100.68 28.623 100.772 28.7959 100.892 28.9453C101.015 29.0947 101.163 29.2119 101.336 29.2969C101.512 29.3818 101.711 29.4243 101.934 29.4243C102.221 29.4243 102.464 29.3657 102.663 29.2485C102.862 29.1313 103.037 28.9746 103.186 28.7783L103.678 29.1694C103.576 29.3247 103.445 29.4727 103.287 29.6133C103.129 29.7539 102.934 29.8682 102.703 29.9561C102.474 30.0439 102.203 30.0879 101.89 30.0879ZM107.915 27.3062V27.9653H105.401V27.3062H107.915ZM105.572 25.2451V30H104.759V25.2451H105.572ZM108.574 25.2451V30H107.756V25.2451H108.574ZM110.74 25.2451H111.553L111.483 27.0249C111.465 27.4761 111.414 27.8657 111.329 28.1938C111.244 28.522 111.136 28.8018 111.004 29.0332C110.872 29.2617 110.724 29.4536 110.56 29.6089C110.399 29.7642 110.232 29.8945 110.059 30H109.655L109.677 29.3364L109.844 29.332C109.94 29.2178 110.034 29.1006 110.125 28.9805C110.216 28.8574 110.299 28.7124 110.375 28.5454C110.452 28.3755 110.515 28.1689 110.564 27.9258C110.617 27.6797 110.651 27.3794 110.666 27.0249L110.74 25.2451ZM110.942 25.2451H113.803V30H112.99V25.9966H110.942V25.2451ZM109.47 29.332H114.414V31.4019H113.601V30H110.283V31.4019H109.466L109.47 29.332ZM117.288 30.0879C116.957 30.0879 116.657 30.0322 116.387 29.9209C116.121 29.8066 115.891 29.647 115.697 29.4419C115.507 29.2368 115.36 28.9937 115.258 28.7124C115.155 28.4312 115.104 28.1235 115.104 27.7896V27.605C115.104 27.2183 115.161 26.874 115.275 26.5723C115.39 26.2676 115.545 26.0098 115.741 25.7988C115.938 25.5879 116.16 25.4282 116.409 25.3198C116.658 25.2114 116.916 25.1572 117.183 25.1572C117.522 25.1572 117.815 25.2158 118.062 25.333C118.311 25.4502 118.514 25.6143 118.672 25.8252C118.831 26.0332 118.948 26.2793 119.024 26.5635C119.1 26.8447 119.138 27.1523 119.138 27.4863V27.8511H115.587V27.1875H118.325V27.126C118.313 26.915 118.27 26.71 118.193 26.5107C118.12 26.3115 118.003 26.1475 117.842 26.0186C117.681 25.8896 117.461 25.8252 117.183 25.8252C116.998 25.8252 116.828 25.8647 116.673 25.9438C116.518 26.02 116.384 26.1343 116.273 26.2866C116.162 26.439 116.075 26.625 116.014 26.8447C115.952 27.0645 115.921 27.3179 115.921 27.605V27.7896C115.921 28.0151 115.952 28.2275 116.014 28.4268C116.078 28.623 116.17 28.7959 116.291 28.9453C116.414 29.0947 116.562 29.2119 116.734 29.2969C116.91 29.3818 117.109 29.4243 117.332 29.4243C117.619 29.4243 117.862 29.3657 118.062 29.2485C118.261 29.1313 118.435 28.9746 118.584 28.7783L119.077 29.1694C118.974 29.3247 118.844 29.4727 118.686 29.6133C118.527 29.7539 118.333 29.8682 118.101 29.9561C117.873 30.0439 117.602 30.0879 117.288 30.0879ZM123.313 27.3062V27.9653H120.799V27.3062H123.313ZM120.971 25.2451V30H120.158V25.2451H120.971ZM123.972 25.2451V30H123.155V25.2451H123.972ZM125.352 30V25.2451H126.165V29.332H128.354V25.2451H129.171V30H125.352ZM129.733 29.332L129.654 31.4106H128.929V30H128.31V29.332H129.733ZM131.496 28.7124L133.688 25.2451H134.506V30H133.688V26.5327L131.496 30H130.687V25.2451H131.496V28.7124ZM138.615 29.187V26.7393C138.615 26.5518 138.577 26.3892 138.5 26.2515C138.427 26.1108 138.316 26.0024 138.167 25.9263C138.017 25.8501 137.833 25.812 137.613 25.812C137.408 25.812 137.228 25.8472 137.072 25.9175C136.92 25.9878 136.8 26.0801 136.712 26.1943C136.627 26.3086 136.584 26.4316 136.584 26.5635H135.771C135.771 26.3936 135.815 26.2251 135.903 26.0581C135.991 25.8911 136.117 25.7402 136.281 25.6055C136.448 25.4678 136.647 25.3594 136.879 25.2803C137.113 25.1982 137.374 25.1572 137.661 25.1572C138.007 25.1572 138.312 25.2158 138.575 25.333C138.842 25.4502 139.05 25.6274 139.199 25.8647C139.352 26.0991 139.428 26.3936 139.428 26.748V28.9629C139.428 29.1211 139.441 29.2896 139.467 29.4683C139.497 29.647 139.539 29.8008 139.595 29.9297V30H138.747C138.706 29.9062 138.673 29.7817 138.65 29.6265C138.626 29.4683 138.615 29.3218 138.615 29.187ZM138.755 27.1172L138.764 27.6885H137.942C137.711 27.6885 137.504 27.7075 137.323 27.7456C137.141 27.7808 136.989 27.835 136.866 27.9082C136.743 27.9814 136.649 28.0737 136.584 28.1851C136.52 28.2935 136.488 28.4209 136.488 28.5674C136.488 28.7168 136.521 28.853 136.589 28.9761C136.656 29.0991 136.757 29.1973 136.892 29.2705C137.03 29.3408 137.198 29.376 137.397 29.376C137.646 29.376 137.866 29.3232 138.057 29.2178C138.247 29.1123 138.398 28.9834 138.509 28.8311C138.624 28.6787 138.685 28.5308 138.694 28.3872L139.041 28.7783C139.021 28.9014 138.965 29.0376 138.874 29.187C138.783 29.3364 138.662 29.48 138.509 29.6177C138.36 29.7524 138.181 29.8652 137.973 29.9561C137.768 30.0439 137.537 30.0879 137.279 30.0879C136.957 30.0879 136.674 30.0249 136.431 29.8989C136.19 29.7729 136.003 29.6045 135.868 29.3936C135.736 29.1797 135.67 28.9409 135.67 28.6772C135.67 28.4224 135.72 28.1982 135.82 28.0049C135.919 27.8086 136.063 27.646 136.25 27.5171C136.438 27.3853 136.664 27.2856 136.927 27.2183C137.191 27.1509 137.485 27.1172 137.811 27.1172H138.755ZM143.884 25.2451V25.9175H141.585V25.2451H143.884ZM144.6 25.2451V30H143.787V25.2451H144.6ZM141.388 25.2451H142.205L142.082 27.5391C142.062 27.8936 142.028 28.207 141.981 28.4795C141.937 28.749 141.875 28.9805 141.796 29.1738C141.72 29.3672 141.624 29.5254 141.506 29.6484C141.392 29.7686 141.254 29.8579 141.093 29.9165C140.932 29.9722 140.746 30 140.535 30H140.28V29.2837L140.456 29.2705C140.582 29.2617 140.689 29.2324 140.777 29.1826C140.868 29.1328 140.944 29.0596 141.005 28.9629C141.067 28.8633 141.117 28.7358 141.155 28.5806C141.196 28.4253 141.227 28.2407 141.247 28.0269C141.271 27.813 141.288 27.564 141.3 27.2798L141.388 25.2451ZM146.578 26.8799H148.006C148.39 26.8799 148.713 26.9473 148.977 27.082C149.241 27.2139 149.44 27.397 149.575 27.6313C149.712 27.8628 149.781 28.1265 149.781 28.4224C149.781 28.6421 149.743 28.8486 149.667 29.042C149.591 29.2324 149.477 29.3994 149.324 29.543C149.175 29.6865 148.989 29.7993 148.766 29.8813C148.546 29.9604 148.293 30 148.006 30H145.984V25.2451H146.797V29.332H148.006C148.24 29.332 148.428 29.2896 148.568 29.2046C148.709 29.1196 148.81 29.0098 148.872 28.875C148.933 28.7402 148.964 28.5996 148.964 28.4531C148.964 28.3096 148.933 28.1689 148.872 28.0312C148.81 27.8936 148.709 27.7793 148.568 27.6885C148.428 27.5947 148.24 27.5479 148.006 27.5479H146.578V26.8799ZM154.022 27.3062V27.9653H151.508V27.3062H154.022ZM151.68 25.2451V30H150.867V25.2451H151.68ZM154.681 25.2451V30H153.864V25.2451H154.681ZM155.775 27.6753V27.5742C155.775 27.2314 155.825 26.9136 155.925 26.6206C156.024 26.3247 156.168 26.0684 156.355 25.8516C156.543 25.6318 156.77 25.4619 157.037 25.3418C157.303 25.2188 157.602 25.1572 157.933 25.1572C158.267 25.1572 158.567 25.2188 158.834 25.3418C159.104 25.4619 159.332 25.6318 159.52 25.8516C159.71 26.0684 159.855 26.3247 159.955 26.6206C160.054 26.9136 160.104 27.2314 160.104 27.5742V27.6753C160.104 28.0181 160.054 28.3359 159.955 28.6289C159.855 28.9219 159.71 29.1782 159.52 29.3979C159.332 29.6147 159.105 29.7847 158.838 29.9077C158.575 30.0278 158.276 30.0879 157.942 30.0879C157.608 30.0879 157.308 30.0278 157.041 29.9077C156.774 29.7847 156.546 29.6147 156.355 29.3979C156.168 29.1782 156.024 28.9219 155.925 28.6289C155.825 28.3359 155.775 28.0181 155.775 27.6753ZM156.588 27.5742V27.6753C156.588 27.9126 156.616 28.1367 156.672 28.3477C156.728 28.5557 156.811 28.7402 156.922 28.9014C157.037 29.0625 157.179 29.1899 157.349 29.2837C157.519 29.3745 157.716 29.4199 157.942 29.4199C158.165 29.4199 158.359 29.3745 158.526 29.2837C158.696 29.1899 158.837 29.0625 158.948 28.9014C159.06 28.7402 159.143 28.5557 159.199 28.3477C159.257 28.1367 159.287 27.9126 159.287 27.6753V27.5742C159.287 27.3398 159.257 27.1187 159.199 26.9106C159.143 26.6997 159.058 26.5137 158.944 26.3525C158.833 26.1885 158.692 26.0596 158.522 25.9658C158.355 25.8721 158.159 25.8252 157.933 25.8252C157.71 25.8252 157.514 25.8721 157.344 25.9658C157.177 26.0596 157.037 26.1885 156.922 26.3525C156.811 26.5137 156.728 26.6997 156.672 26.9106C156.616 27.1187 156.588 27.3398 156.588 27.5742ZM163.026 29.4199C163.22 29.4199 163.398 29.3804 163.562 29.3013C163.727 29.2222 163.861 29.1138 163.967 28.9761C164.072 28.8354 164.132 28.6758 164.147 28.4971H164.92C164.906 28.7783 164.811 29.0405 164.635 29.2837C164.462 29.5239 164.235 29.7188 163.954 29.8682C163.672 30.0146 163.363 30.0879 163.026 30.0879C162.669 30.0879 162.357 30.0249 162.09 29.8989C161.827 29.7729 161.607 29.6001 161.431 29.3804C161.258 29.1606 161.128 28.9087 161.04 28.6245C160.955 28.3374 160.913 28.0342 160.913 27.7148V27.5303C160.913 27.2109 160.955 26.9092 161.04 26.625C161.128 26.3379 161.258 26.0845 161.431 25.8647C161.607 25.645 161.827 25.4722 162.09 25.3462C162.357 25.2202 162.669 25.1572 163.026 25.1572C163.398 25.1572 163.724 25.2334 164.002 25.3857C164.28 25.5352 164.499 25.7402 164.657 26.001C164.818 26.2588 164.906 26.5518 164.92 26.8799H164.147C164.132 26.6836 164.077 26.5063 163.98 26.3481C163.886 26.1899 163.757 26.064 163.593 25.9702C163.432 25.8735 163.243 25.8252 163.026 25.8252C162.777 25.8252 162.568 25.875 162.398 25.9746C162.231 26.0713 162.098 26.2031 161.998 26.3701C161.901 26.5342 161.831 26.7173 161.787 26.9194C161.746 27.1187 161.726 27.3223 161.726 27.5303V27.7148C161.726 27.9229 161.746 28.1279 161.787 28.3301C161.828 28.5322 161.897 28.7153 161.994 28.8794C162.093 29.0435 162.227 29.1753 162.394 29.2749C162.563 29.3716 162.774 29.4199 163.026 29.4199ZM167.772 25.2451V30H166.955V25.2451H167.772ZM169.368 25.2451V25.9043H165.391V25.2451H169.368ZM171.046 28.7124L173.239 25.2451H174.057V30H173.239V26.5327L171.046 30H170.238V25.2451H171.046V28.7124Z" fill="#7D808A"/>
<path d="M34.2578 30.8789H174.742V31.3184H34.2578V30.8789Z" fill="#7D808A"/>
<path d="M98.499 133.258V134H93.8457V133.351L96.1748 130.758C96.4613 130.439 96.6826 130.169 96.8389 129.947C96.9984 129.723 97.109 129.522 97.1709 129.347C97.236 129.168 97.2686 128.985 97.2686 128.8C97.2686 128.565 97.2197 128.354 97.1221 128.165C97.0277 127.973 96.8877 127.82 96.7021 127.706C96.5166 127.592 96.292 127.535 96.0283 127.535C95.7126 127.535 95.4489 127.597 95.2373 127.721C95.029 127.841 94.8727 128.01 94.7686 128.229C94.6644 128.447 94.6123 128.697 94.6123 128.98H93.709C93.709 128.58 93.7969 128.214 93.9727 127.882C94.1484 127.55 94.4089 127.286 94.7539 127.091C95.099 126.892 95.5238 126.793 96.0283 126.793C96.4775 126.793 96.8617 126.873 97.1807 127.032C97.4997 127.188 97.7438 127.41 97.9131 127.696C98.0856 127.979 98.1719 128.312 98.1719 128.692C98.1719 128.901 98.1361 129.112 98.0645 129.327C97.9961 129.539 97.9001 129.75 97.7764 129.962C97.6559 130.174 97.5143 130.382 97.3516 130.587C97.1921 130.792 97.0212 130.994 96.8389 131.192L94.9346 133.258H98.499ZM103.929 129.879V130.963C103.929 131.546 103.877 132.037 103.772 132.438C103.668 132.838 103.519 133.16 103.323 133.404C103.128 133.648 102.892 133.826 102.615 133.937C102.342 134.044 102.033 134.098 101.688 134.098C101.414 134.098 101.162 134.063 100.931 133.995C100.7 133.927 100.491 133.818 100.306 133.668C100.123 133.515 99.9671 133.316 99.8369 133.072C99.7067 132.828 99.6074 132.532 99.5391 132.184C99.4707 131.835 99.4365 131.428 99.4365 130.963V129.879C99.4365 129.296 99.4886 128.808 99.5928 128.414C99.7002 128.02 99.8516 127.704 100.047 127.467C100.242 127.226 100.477 127.053 100.75 126.949C101.027 126.845 101.336 126.793 101.678 126.793C101.954 126.793 102.208 126.827 102.439 126.896C102.674 126.961 102.882 127.066 103.064 127.213C103.247 127.356 103.401 127.548 103.528 127.789C103.659 128.027 103.758 128.318 103.826 128.663C103.895 129.008 103.929 129.413 103.929 129.879ZM103.021 131.109V129.728C103.021 129.409 103.001 129.129 102.962 128.888C102.926 128.644 102.872 128.435 102.801 128.263C102.729 128.09 102.638 127.95 102.527 127.843C102.42 127.735 102.295 127.657 102.151 127.608C102.011 127.556 101.854 127.53 101.678 127.53C101.463 127.53 101.272 127.571 101.106 127.652C100.94 127.73 100.8 127.856 100.687 128.028C100.576 128.201 100.491 128.427 100.433 128.707C100.374 128.987 100.345 129.327 100.345 129.728V131.109C100.345 131.428 100.363 131.71 100.398 131.954C100.438 132.198 100.494 132.41 100.569 132.589C100.644 132.765 100.735 132.91 100.843 133.023C100.95 133.137 101.074 133.222 101.214 133.277C101.357 133.329 101.515 133.355 101.688 133.355C101.909 133.355 102.103 133.313 102.269 133.229C102.435 133.144 102.573 133.012 102.684 132.833C102.798 132.651 102.882 132.418 102.938 132.135C102.993 131.848 103.021 131.507 103.021 131.109ZM109.749 133.258V134H105.096V133.351L107.425 130.758C107.711 130.439 107.933 130.169 108.089 129.947C108.248 129.723 108.359 129.522 108.421 129.347C108.486 129.168 108.519 128.985 108.519 128.8C108.519 128.565 108.47 128.354 108.372 128.165C108.278 127.973 108.138 127.82 107.952 127.706C107.767 127.592 107.542 127.535 107.278 127.535C106.963 127.535 106.699 127.597 106.487 127.721C106.279 127.841 106.123 128.01 106.019 128.229C105.914 128.447 105.862 128.697 105.862 128.98H104.959C104.959 128.58 105.047 128.214 105.223 127.882C105.398 127.55 105.659 127.286 106.004 127.091C106.349 126.892 106.774 126.793 107.278 126.793C107.728 126.793 108.112 126.873 108.431 127.032C108.75 127.188 108.994 127.41 109.163 127.696C109.336 127.979 109.422 128.312 109.422 128.692C109.422 128.901 109.386 129.112 109.314 129.327C109.246 129.539 109.15 129.75 109.026 129.962C108.906 130.174 108.764 130.382 108.602 130.587C108.442 130.792 108.271 130.994 108.089 131.192L106.185 133.258H109.749ZM115.374 133.258V134H110.721V133.351L113.05 130.758C113.336 130.439 113.558 130.169 113.714 129.947C113.873 129.723 113.984 129.522 114.046 129.347C114.111 129.168 114.144 128.985 114.144 128.8C114.144 128.565 114.095 128.354 113.997 128.165C113.903 127.973 113.763 127.82 113.577 127.706C113.392 127.592 113.167 127.535 112.903 127.535C112.588 127.535 112.324 127.597 112.112 127.721C111.904 127.841 111.748 128.01 111.644 128.229C111.539 128.447 111.487 128.697 111.487 128.98H110.584C110.584 128.58 110.672 128.214 110.848 127.882C111.023 127.55 111.284 127.286 111.629 127.091C111.974 126.892 112.399 126.793 112.903 126.793C113.353 126.793 113.737 126.873 114.056 127.032C114.375 127.188 114.619 127.41 114.788 127.696C114.961 127.979 115.047 128.312 115.047 128.692C115.047 128.901 115.011 129.112 114.939 129.327C114.871 129.539 114.775 129.75 114.651 129.962C114.531 130.174 114.389 130.382 114.227 130.587C114.067 130.792 113.896 130.994 113.714 131.192L111.81 133.258H115.374Z" fill="white"/>
</svg>
