<svg width="186" height="44" viewBox="0 0 186 44" fill="none" xmlns="http://www.w3.org/2000/svg">
<path d="M35.2637 9.87207V12.0781H26.4922V9.87207H35.2637ZM32.082 6.40039V15.7168H29.6826V6.40039H32.082ZM45.3799 4.20312V5.56543L40.4316 17H37.7598L42.708 6.18066H36.3359V4.20312H45.3799ZM51.7256 11.9902V11.7969C51.7256 10.5605 51.8545 9.43848 52.1123 8.43066C52.376 7.42285 52.7217 6.53809 53.1494 5.77637C53.583 5.00879 54.0547 4.37305 54.5645 3.86914C55.0742 3.36523 55.5811 3.00195 56.085 2.7793L56.5684 4.11523C56.2344 4.36133 55.9062 4.70117 55.584 5.13477C55.2617 5.5625 54.9688 6.08984 54.7051 6.7168C54.4473 7.33789 54.2393 8.07031 54.0811 8.91406C53.9229 9.75195 53.8438 10.707 53.8438 11.7793V12.0078C53.8438 13.0801 53.9229 14.0381 54.0811 14.8818C54.2393 15.7197 54.4473 16.4521 54.7051 17.0791C54.9688 17.7119 55.2617 18.2451 55.584 18.6787C55.9062 19.1123 56.2344 19.4551 56.5684 19.707L56.085 21.0078C55.5811 20.7852 55.0742 20.4219 54.5645 19.918C54.0547 19.4199 53.583 18.7871 53.1494 18.0195C52.7217 17.2578 52.376 16.373 52.1123 15.3652C51.8545 14.3516 51.7256 13.2266 51.7256 11.9902ZM66.4121 9.47656V11.6914C66.4121 12.6523 66.3096 13.4814 66.1045 14.1787C65.8994 14.8701 65.6035 15.4385 65.2168 15.8838C64.8359 16.3232 64.3818 16.6484 63.8545 16.8594C63.3271 17.0703 62.7412 17.1758 62.0967 17.1758C61.5811 17.1758 61.1006 17.1113 60.6553 16.9824C60.21 16.8477 59.8086 16.6396 59.4512 16.3584C59.0996 16.0771 58.7949 15.7227 58.5371 15.2949C58.2852 14.8613 58.0918 14.3457 57.957 13.748C57.8223 13.1504 57.7549 12.4648 57.7549 11.6914V9.47656C57.7549 8.51562 57.8574 7.69238 58.0625 7.00684C58.2734 6.31543 58.5693 5.75 58.9502 5.31055C59.3369 4.87109 59.7939 4.54883 60.3213 4.34375C60.8486 4.13281 61.4346 4.02734 62.0791 4.02734C62.5947 4.02734 63.0723 4.09473 63.5117 4.22949C63.957 4.3584 64.3584 4.56055 64.7158 4.83594C65.0732 5.11133 65.3779 5.46582 65.6299 5.89941C65.8818 6.32715 66.0752 6.83984 66.21 7.4375C66.3447 8.0293 66.4121 8.70898 66.4121 9.47656ZM63.8721 12.0254V9.13379C63.8721 8.6709 63.8457 8.2666 63.793 7.9209C63.7461 7.5752 63.6729 7.28223 63.5732 7.04199C63.4736 6.7959 63.3506 6.59668 63.2041 6.44434C63.0576 6.29199 62.8906 6.18066 62.7031 6.11035C62.5156 6.04004 62.3076 6.00488 62.0791 6.00488C61.792 6.00488 61.5371 6.06055 61.3145 6.17188C61.0977 6.2832 60.9131 6.46191 60.7607 6.70801C60.6084 6.94824 60.4912 7.27051 60.4092 7.6748C60.333 8.07324 60.2949 8.55957 60.2949 9.13379V12.0254C60.2949 12.4883 60.3184 12.8955 60.3652 13.2471C60.418 13.5986 60.4941 13.9004 60.5938 14.1523C60.6992 14.3984 60.8223 14.6006 60.9629 14.7588C61.1094 14.9111 61.2764 15.0225 61.4639 15.0928C61.6572 15.1631 61.8682 15.1982 62.0967 15.1982C62.3779 15.1982 62.627 15.1426 62.8438 15.0312C63.0664 14.9141 63.2539 14.7324 63.4062 14.4863C63.5645 14.2344 63.6816 13.9062 63.7578 13.502C63.834 13.0977 63.8721 12.6055 63.8721 12.0254ZM76.748 9.47656V11.6914C76.748 12.6523 76.6455 13.4814 76.4404 14.1787C76.2354 14.8701 75.9395 15.4385 75.5527 15.8838C75.1719 16.3232 74.7178 16.6484 74.1904 16.8594C73.6631 17.0703 73.0771 17.1758 72.4326 17.1758C71.917 17.1758 71.4365 17.1113 70.9912 16.9824C70.5459 16.8477 70.1445 16.6396 69.7871 16.3584C69.4355 16.0771 69.1309 15.7227 68.873 15.2949C68.6211 14.8613 68.4277 14.3457 68.293 13.748C68.1582 13.1504 68.0908 12.4648 68.0908 11.6914V9.47656C68.0908 8.51562 68.1934 7.69238 68.3984 7.00684C68.6094 6.31543 68.9053 5.75 69.2861 5.31055C69.6729 4.87109 70.1299 4.54883 70.6572 4.34375C71.1846 4.13281 71.7705 4.02734 72.415 4.02734C72.9307 4.02734 73.4082 4.09473 73.8477 4.22949C74.293 4.3584 74.6943 4.56055 75.0518 4.83594C75.4092 5.11133 75.7139 5.46582 75.9658 5.89941C76.2178 6.32715 76.4111 6.83984 76.5459 7.4375C76.6807 8.0293 76.748 8.70898 76.748 9.47656ZM74.208 12.0254V9.13379C74.208 8.6709 74.1816 8.2666 74.1289 7.9209C74.082 7.5752 74.0088 7.28223 73.9092 7.04199C73.8096 6.7959 73.6865 6.59668 73.54 6.44434C73.3936 6.29199 73.2266 6.18066 73.0391 6.11035C72.8516 6.04004 72.6436 6.00488 72.415 6.00488C72.1279 6.00488 71.873 6.06055 71.6504 6.17188C71.4336 6.2832 71.249 6.46191 71.0967 6.70801C70.9443 6.94824 70.8271 7.27051 70.7451 7.6748C70.6689 8.07324 70.6309 8.55957 70.6309 9.13379V12.0254C70.6309 12.4883 70.6543 12.8955 70.7012 13.2471C70.7539 13.5986 70.8301 13.9004 70.9297 14.1523C71.0352 14.3984 71.1582 14.6006 71.2988 14.7588C71.4453 14.9111 71.6123 15.0225 71.7998 15.0928C71.9932 15.1631 72.2041 15.1982 72.4326 15.1982C72.7139 15.1982 72.9629 15.1426 73.1797 15.0312C73.4023 14.9141 73.5898 14.7324 73.7422 14.4863C73.9004 14.2344 74.0176 13.9062 74.0938 13.502C74.1699 13.0977 74.208 12.6055 74.208 12.0254ZM87.084 9.47656V11.6914C87.084 12.6523 86.9814 13.4814 86.7764 14.1787C86.5713 14.8701 86.2754 15.4385 85.8887 15.8838C85.5078 16.3232 85.0537 16.6484 84.5264 16.8594C83.999 17.0703 83.4131 17.1758 82.7686 17.1758C82.2529 17.1758 81.7725 17.1113 81.3271 16.9824C80.8818 16.8477 80.4805 16.6396 80.123 16.3584C79.7715 16.0771 79.4668 15.7227 79.209 15.2949C78.957 14.8613 78.7637 14.3457 78.6289 13.748C78.4941 13.1504 78.4268 12.4648 78.4268 11.6914V9.47656C78.4268 8.51562 78.5293 7.69238 78.7344 7.00684C78.9453 6.31543 79.2412 5.75 79.6221 5.31055C80.0088 4.87109 80.4658 4.54883 80.9932 4.34375C81.5205 4.13281 82.1064 4.02734 82.751 4.02734C83.2666 4.02734 83.7441 4.09473 84.1836 4.22949C84.6289 4.3584 85.0303 4.56055 85.3877 4.83594C85.7451 5.11133 86.0498 5.46582 86.3018 5.89941C86.5537 6.32715 86.7471 6.83984 86.8818 7.4375C87.0166 8.0293 87.084 8.70898 87.084 9.47656ZM84.5439 12.0254V9.13379C84.5439 8.6709 84.5176 8.2666 84.4648 7.9209C84.418 7.5752 84.3447 7.28223 84.2451 7.04199C84.1455 6.7959 84.0225 6.59668 83.876 6.44434C83.7295 6.29199 83.5625 6.18066 83.375 6.11035C83.1875 6.04004 82.9795 6.00488 82.751 6.00488C82.4639 6.00488 82.209 6.06055 81.9863 6.17188C81.7695 6.2832 81.585 6.46191 81.4326 6.70801C81.2803 6.94824 81.1631 7.27051 81.0811 7.6748C81.0049 8.07324 80.9668 8.55957 80.9668 9.13379V12.0254C80.9668 12.4883 80.9902 12.8955 81.0371 13.2471C81.0898 13.5986 81.166 13.9004 81.2656 14.1523C81.3711 14.3984 81.4941 14.6006 81.6348 14.7588C81.7812 14.9111 81.9482 15.0225 82.1357 15.0928C82.3291 15.1631 82.54 15.1982 82.7686 15.1982C83.0498 15.1982 83.2988 15.1426 83.5156 15.0312C83.7383 14.9141 83.9258 14.7324 84.0781 14.4863C84.2363 14.2344 84.3535 13.9062 84.4297 13.502C84.5059 13.0977 84.5439 12.6055 84.5439 12.0254ZM93.2627 11.7969V11.9902C93.2627 13.1855 93.1279 14.2871 92.8584 15.2949C92.5889 16.2969 92.2314 17.1846 91.7861 17.958C91.3467 18.7373 90.8633 19.3848 90.3359 19.9004C89.8145 20.416 89.293 20.7852 88.7715 21.0078L88.2793 19.707C88.6133 19.4609 88.9385 19.1211 89.2549 18.6875C89.5771 18.2539 89.8701 17.7207 90.1338 17.0879C90.3975 16.4609 90.6055 15.7256 90.7578 14.8818C90.916 14.0381 90.9951 13.0801 90.9951 12.0078V11.7793C90.9951 10.707 90.916 9.74902 90.7578 8.90527C90.5996 8.06152 90.3857 7.32617 90.1162 6.69922C89.8525 6.06641 89.5596 5.53613 89.2373 5.1084C88.9209 4.6748 88.6016 4.33496 88.2793 4.08887L88.7715 2.7793C89.293 3.00195 89.8145 3.37402 90.3359 3.89551C90.8633 4.41113 91.3467 5.05566 91.7861 5.8291C92.2314 6.60254 92.5889 7.49316 92.8584 8.50098C93.1279 9.50293 93.2627 10.6016 93.2627 11.7969ZM108.23 9.47656V11.6914C108.23 12.6523 108.128 13.4814 107.923 14.1787C107.718 14.8701 107.422 15.4385 107.035 15.8838C106.654 16.3232 106.2 16.6484 105.673 16.8594C105.146 17.0703 104.56 17.1758 103.915 17.1758C103.399 17.1758 102.919 17.1113 102.474 16.9824C102.028 16.8477 101.627 16.6396 101.27 16.3584C100.918 16.0771 100.613 15.7227 100.355 15.2949C100.104 14.8613 99.9102 14.3457 99.7754 13.748C99.6406 13.1504 99.5732 12.4648 99.5732 11.6914V9.47656C99.5732 8.51562 99.6758 7.69238 99.8809 7.00684C100.092 6.31543 100.388 5.75 100.769 5.31055C101.155 4.87109 101.612 4.54883 102.14 4.34375C102.667 4.13281 103.253 4.02734 103.897 4.02734C104.413 4.02734 104.891 4.09473 105.33 4.22949C105.775 4.3584 106.177 4.56055 106.534 4.83594C106.892 5.11133 107.196 5.46582 107.448 5.89941C107.7 6.32715 107.894 6.83984 108.028 7.4375C108.163 8.0293 108.23 8.70898 108.23 9.47656ZM105.69 12.0254V9.13379C105.69 8.6709 105.664 8.2666 105.611 7.9209C105.564 7.5752 105.491 7.28223 105.392 7.04199C105.292 6.7959 105.169 6.59668 105.022 6.44434C104.876 6.29199 104.709 6.18066 104.521 6.11035C104.334 6.04004 104.126 6.00488 103.897 6.00488C103.61 6.00488 103.355 6.06055 103.133 6.17188C102.916 6.2832 102.731 6.46191 102.579 6.70801C102.427 6.94824 102.31 7.27051 102.228 7.6748C102.151 8.07324 102.113 8.55957 102.113 9.13379V12.0254C102.113 12.4883 102.137 12.8955 102.184 13.2471C102.236 13.5986 102.312 13.9004 102.412 14.1523C102.518 14.3984 102.641 14.6006 102.781 14.7588C102.928 14.9111 103.095 15.0225 103.282 15.0928C103.476 15.1631 103.687 15.1982 103.915 15.1982C104.196 15.1982 104.445 15.1426 104.662 15.0312C104.885 14.9141 105.072 14.7324 105.225 14.4863C105.383 14.2344 105.5 13.9062 105.576 13.502C105.652 13.0977 105.69 12.6055 105.69 12.0254ZM118.566 9.47656V11.6914C118.566 12.6523 118.464 13.4814 118.259 14.1787C118.054 14.8701 117.758 15.4385 117.371 15.8838C116.99 16.3232 116.536 16.6484 116.009 16.8594C115.481 17.0703 114.896 17.1758 114.251 17.1758C113.735 17.1758 113.255 17.1113 112.81 16.9824C112.364 16.8477 111.963 16.6396 111.605 16.3584C111.254 16.0771 110.949 15.7227 110.691 15.2949C110.439 14.8613 110.246 14.3457 110.111 13.748C109.977 13.1504 109.909 12.4648 109.909 11.6914V9.47656C109.909 8.51562 110.012 7.69238 110.217 7.00684C110.428 6.31543 110.724 5.75 111.104 5.31055C111.491 4.87109 111.948 4.54883 112.476 4.34375C113.003 4.13281 113.589 4.02734 114.233 4.02734C114.749 4.02734 115.227 4.09473 115.666 4.22949C116.111 4.3584 116.513 4.56055 116.87 4.83594C117.228 5.11133 117.532 5.46582 117.784 5.89941C118.036 6.32715 118.229 6.83984 118.364 7.4375C118.499 8.0293 118.566 8.70898 118.566 9.47656ZM116.026 12.0254V9.13379C116.026 8.6709 116 8.2666 115.947 7.9209C115.9 7.5752 115.827 7.28223 115.728 7.04199C115.628 6.7959 115.505 6.59668 115.358 6.44434C115.212 6.29199 115.045 6.18066 114.857 6.11035C114.67 6.04004 114.462 6.00488 114.233 6.00488C113.946 6.00488 113.691 6.06055 113.469 6.17188C113.252 6.2832 113.067 6.46191 112.915 6.70801C112.763 6.94824 112.646 7.27051 112.563 7.6748C112.487 8.07324 112.449 8.55957 112.449 9.13379V12.0254C112.449 12.4883 112.473 12.8955 112.52 13.2471C112.572 13.5986 112.648 13.9004 112.748 14.1523C112.854 14.3984 112.977 14.6006 113.117 14.7588C113.264 14.9111 113.431 15.0225 113.618 15.0928C113.812 15.1631 114.022 15.1982 114.251 15.1982C114.532 15.1982 114.781 15.1426 114.998 15.0312C115.221 14.9141 115.408 14.7324 115.561 14.4863C115.719 14.2344 115.836 13.9062 115.912 13.502C115.988 13.0977 116.026 12.6055 116.026 12.0254ZM128.902 9.47656V11.6914C128.902 12.6523 128.8 13.4814 128.595 14.1787C128.39 14.8701 128.094 15.4385 127.707 15.8838C127.326 16.3232 126.872 16.6484 126.345 16.8594C125.817 17.0703 125.231 17.1758 124.587 17.1758C124.071 17.1758 123.591 17.1113 123.146 16.9824C122.7 16.8477 122.299 16.6396 121.941 16.3584C121.59 16.0771 121.285 15.7227 121.027 15.2949C120.775 14.8613 120.582 14.3457 120.447 13.748C120.312 13.1504 120.245 12.4648 120.245 11.6914V9.47656C120.245 8.51562 120.348 7.69238 120.553 7.00684C120.764 6.31543 121.06 5.75 121.44 5.31055C121.827 4.87109 122.284 4.54883 122.812 4.34375C123.339 4.13281 123.925 4.02734 124.569 4.02734C125.085 4.02734 125.562 4.09473 126.002 4.22949C126.447 4.3584 126.849 4.56055 127.206 4.83594C127.563 5.11133 127.868 5.46582 128.12 5.89941C128.372 6.32715 128.565 6.83984 128.7 7.4375C128.835 8.0293 128.902 8.70898 128.902 9.47656ZM126.362 12.0254V9.13379C126.362 8.6709 126.336 8.2666 126.283 7.9209C126.236 7.5752 126.163 7.28223 126.063 7.04199C125.964 6.7959 125.841 6.59668 125.694 6.44434C125.548 6.29199 125.381 6.18066 125.193 6.11035C125.006 6.04004 124.798 6.00488 124.569 6.00488C124.282 6.00488 124.027 6.06055 123.805 6.17188C123.588 6.2832 123.403 6.46191 123.251 6.70801C123.099 6.94824 122.981 7.27051 122.899 7.6748C122.823 8.07324 122.785 8.55957 122.785 9.13379V12.0254C122.785 12.4883 122.809 12.8955 122.855 13.2471C122.908 13.5986 122.984 13.9004 123.084 14.1523C123.189 14.3984 123.312 14.6006 123.453 14.7588C123.6 14.9111 123.767 15.0225 123.954 15.0928C124.147 15.1631 124.358 15.1982 124.587 15.1982C124.868 15.1982 125.117 15.1426 125.334 15.0312C125.557 14.9141 125.744 14.7324 125.896 14.4863C126.055 14.2344 126.172 13.9062 126.248 13.502C126.324 13.0977 126.362 12.6055 126.362 12.0254ZM135.723 10.5137V12.5H130.757V10.5137H135.723ZM146.34 9.47656V11.6914C146.34 12.6523 146.237 13.4814 146.032 14.1787C145.827 14.8701 145.531 15.4385 145.145 15.8838C144.764 16.3232 144.31 16.6484 143.782 16.8594C143.255 17.0703 142.669 17.1758 142.024 17.1758C141.509 17.1758 141.028 17.1113 140.583 16.9824C140.138 16.8477 139.736 16.6396 139.379 16.3584C139.027 16.0771 138.723 15.7227 138.465 15.2949C138.213 14.8613 138.02 14.3457 137.885 13.748C137.75 13.1504 137.683 12.4648 137.683 11.6914V9.47656C137.683 8.51562 137.785 7.69238 137.99 7.00684C138.201 6.31543 138.497 5.75 138.878 5.31055C139.265 4.87109 139.722 4.54883 140.249 4.34375C140.776 4.13281 141.362 4.02734 142.007 4.02734C142.522 4.02734 143 4.09473 143.439 4.22949C143.885 4.3584 144.286 4.56055 144.644 4.83594C145.001 5.11133 145.306 5.46582 145.558 5.89941C145.81 6.32715 146.003 6.83984 146.138 7.4375C146.272 8.0293 146.34 8.70898 146.34 9.47656ZM143.8 12.0254V9.13379C143.8 8.6709 143.773 8.2666 143.721 7.9209C143.674 7.5752 143.601 7.28223 143.501 7.04199C143.401 6.7959 143.278 6.59668 143.132 6.44434C142.985 6.29199 142.818 6.18066 142.631 6.11035C142.443 6.04004 142.235 6.00488 142.007 6.00488C141.72 6.00488 141.465 6.06055 141.242 6.17188C141.025 6.2832 140.841 6.46191 140.688 6.70801C140.536 6.94824 140.419 7.27051 140.337 7.6748C140.261 8.07324 140.223 8.55957 140.223 9.13379V12.0254C140.223 12.4883 140.246 12.8955 140.293 13.2471C140.346 13.5986 140.422 13.9004 140.521 14.1523C140.627 14.3984 140.75 14.6006 140.891 14.7588C141.037 14.9111 141.204 15.0225 141.392 15.0928C141.585 15.1631 141.796 15.1982 142.024 15.1982C142.306 15.1982 142.555 15.1426 142.771 15.0312C142.994 14.9141 143.182 14.7324 143.334 14.4863C143.492 14.2344 143.609 13.9062 143.686 13.502C143.762 13.0977 143.8 12.6055 143.8 12.0254ZM156.676 9.47656V11.6914C156.676 12.6523 156.573 13.4814 156.368 14.1787C156.163 14.8701 155.867 15.4385 155.48 15.8838C155.1 16.3232 154.646 16.6484 154.118 16.8594C153.591 17.0703 153.005 17.1758 152.36 17.1758C151.845 17.1758 151.364 17.1113 150.919 16.9824C150.474 16.8477 150.072 16.6396 149.715 16.3584C149.363 16.0771 149.059 15.7227 148.801 15.2949C148.549 14.8613 148.355 14.3457 148.221 13.748C148.086 13.1504 148.019 12.4648 148.019 11.6914V9.47656C148.019 8.51562 148.121 7.69238 148.326 7.00684C148.537 6.31543 148.833 5.75 149.214 5.31055C149.601 4.87109 150.058 4.54883 150.585 4.34375C151.112 4.13281 151.698 4.02734 152.343 4.02734C152.858 4.02734 153.336 4.09473 153.775 4.22949C154.221 4.3584 154.622 4.56055 154.979 4.83594C155.337 5.11133 155.642 5.46582 155.894 5.89941C156.146 6.32715 156.339 6.83984 156.474 7.4375C156.608 8.0293 156.676 8.70898 156.676 9.47656ZM154.136 12.0254V9.13379C154.136 8.6709 154.109 8.2666 154.057 7.9209C154.01 7.5752 153.937 7.28223 153.837 7.04199C153.737 6.7959 153.614 6.59668 153.468 6.44434C153.321 6.29199 153.154 6.18066 152.967 6.11035C152.779 6.04004 152.571 6.00488 152.343 6.00488C152.056 6.00488 151.801 6.06055 151.578 6.17188C151.361 6.2832 151.177 6.46191 151.024 6.70801C150.872 6.94824 150.755 7.27051 150.673 7.6748C150.597 8.07324 150.559 8.55957 150.559 9.13379V12.0254C150.559 12.4883 150.582 12.8955 150.629 13.2471C150.682 13.5986 150.758 13.9004 150.857 14.1523C150.963 14.3984 151.086 14.6006 151.227 14.7588C151.373 14.9111 151.54 15.0225 151.728 15.0928C151.921 15.1631 152.132 15.1982 152.36 15.1982C152.642 15.1982 152.891 15.1426 153.107 15.0312C153.33 14.9141 153.518 14.7324 153.67 14.4863C153.828 14.2344 153.945 13.9062 154.021 13.502C154.098 13.0977 154.136 12.6055 154.136 12.0254ZM163.496 10.5137V12.5H158.53V10.5137H163.496ZM174.113 9.47656V11.6914C174.113 12.6523 174.011 13.4814 173.806 14.1787C173.601 14.8701 173.305 15.4385 172.918 15.8838C172.537 16.3232 172.083 16.6484 171.556 16.8594C171.028 17.0703 170.442 17.1758 169.798 17.1758C169.282 17.1758 168.802 17.1113 168.356 16.9824C167.911 16.8477 167.51 16.6396 167.152 16.3584C166.801 16.0771 166.496 15.7227 166.238 15.2949C165.986 14.8613 165.793 14.3457 165.658 13.748C165.523 13.1504 165.456 12.4648 165.456 11.6914V9.47656C165.456 8.51562 165.559 7.69238 165.764 7.00684C165.975 6.31543 166.271 5.75 166.651 5.31055C167.038 4.87109 167.495 4.54883 168.022 4.34375C168.55 4.13281 169.136 4.02734 169.78 4.02734C170.296 4.02734 170.773 4.09473 171.213 4.22949C171.658 4.3584 172.06 4.56055 172.417 4.83594C172.774 5.11133 173.079 5.46582 173.331 5.89941C173.583 6.32715 173.776 6.83984 173.911 7.4375C174.046 8.0293 174.113 8.70898 174.113 9.47656ZM171.573 12.0254V9.13379C171.573 8.6709 171.547 8.2666 171.494 7.9209C171.447 7.5752 171.374 7.28223 171.274 7.04199C171.175 6.7959 171.052 6.59668 170.905 6.44434C170.759 6.29199 170.592 6.18066 170.404 6.11035C170.217 6.04004 170.009 6.00488 169.78 6.00488C169.493 6.00488 169.238 6.06055 169.016 6.17188C168.799 6.2832 168.614 6.46191 168.462 6.70801C168.31 6.94824 168.192 7.27051 168.11 7.6748C168.034 8.07324 167.996 8.55957 167.996 9.13379V12.0254C167.996 12.4883 168.02 12.8955 168.066 13.2471C168.119 13.5986 168.195 13.9004 168.295 14.1523C168.4 14.3984 168.523 14.6006 168.664 14.7588C168.811 14.9111 168.978 15.0225 169.165 15.0928C169.358 15.1631 169.569 15.1982 169.798 15.1982C170.079 15.1982 170.328 15.1426 170.545 15.0312C170.768 14.9141 170.955 14.7324 171.107 14.4863C171.266 14.2344 171.383 13.9062 171.459 13.502C171.535 13.0977 171.573 12.6055 171.573 12.0254ZM184.449 9.47656V11.6914C184.449 12.6523 184.347 13.4814 184.142 14.1787C183.937 14.8701 183.641 15.4385 183.254 15.8838C182.873 16.3232 182.419 16.6484 181.892 16.8594C181.364 17.0703 180.778 17.1758 180.134 17.1758C179.618 17.1758 179.138 17.1113 178.692 16.9824C178.247 16.8477 177.846 16.6396 177.488 16.3584C177.137 16.0771 176.832 15.7227 176.574 15.2949C176.322 14.8613 176.129 14.3457 175.994 13.748C175.859 13.1504 175.792 12.4648 175.792 11.6914V9.47656C175.792 8.51562 175.895 7.69238 176.1 7.00684C176.311 6.31543 176.606 5.75 176.987 5.31055C177.374 4.87109 177.831 4.54883 178.358 4.34375C178.886 4.13281 179.472 4.02734 180.116 4.02734C180.632 4.02734 181.109 4.09473 181.549 4.22949C181.994 4.3584 182.396 4.56055 182.753 4.83594C183.11 5.11133 183.415 5.46582 183.667 5.89941C183.919 6.32715 184.112 6.83984 184.247 7.4375C184.382 8.0293 184.449 8.70898 184.449 9.47656ZM181.909 12.0254V9.13379C181.909 8.6709 181.883 8.2666 181.83 7.9209C181.783 7.5752 181.71 7.28223 181.61 7.04199C181.511 6.7959 181.388 6.59668 181.241 6.44434C181.095 6.29199 180.928 6.18066 180.74 6.11035C180.553 6.04004 180.345 6.00488 180.116 6.00488C179.829 6.00488 179.574 6.06055 179.352 6.17188C179.135 6.2832 178.95 6.46191 178.798 6.70801C178.646 6.94824 178.528 7.27051 178.446 7.6748C178.37 8.07324 178.332 8.55957 178.332 9.13379V12.0254C178.332 12.4883 178.355 12.8955 178.402 13.2471C178.455 13.5986 178.531 13.9004 178.631 14.1523C178.736 14.3984 178.859 14.6006 179 14.7588C179.146 14.9111 179.313 15.0225 179.501 15.0928C179.694 15.1631 179.905 15.1982 180.134 15.1982C180.415 15.1982 180.664 15.1426 180.881 15.0312C181.104 14.9141 181.291 14.7324 181.443 14.4863C181.602 14.2344 181.719 13.9062 181.795 13.502C181.871 13.0977 181.909 12.6055 181.909 12.0254Z" fill="#202020"/>
<path d="M32.9443 40.0034V41H28.0503V40.0034H32.9443ZM28.2979 31.7578V41H27.0728V31.7578H28.2979ZM32.2969 35.7314V36.728H28.0503V35.7314H32.2969ZM32.8809 31.7578V32.7607H28.0503V31.7578H32.8809ZM36.3657 38.0103L33.7632 34.1318H35.1787L36.9561 36.9756H38.3271L38.1558 38.0103H36.3657ZM37.0068 37.8896L35.0137 41H33.5283L36.2642 37.0391L37.0068 37.8896ZM38.9302 34.1318V41H37.7559V34.1318H38.9302ZM42.9355 34.1318L40.333 38.0103H38.543L38.3589 36.9756H39.7363L41.5137 34.1318H42.9355ZM41.6787 41L39.6792 37.8896L40.4346 37.0391L43.1641 41H41.6787ZM46.9727 41.127C46.4945 41.127 46.0607 41.0465 45.6714 40.8857C45.2863 40.7207 44.9541 40.4901 44.6748 40.1938C44.3997 39.8976 44.1882 39.5464 44.04 39.1401C43.8919 38.7339 43.8179 38.2896 43.8179 37.8071V37.5405C43.8179 36.9819 43.9004 36.4847 44.0654 36.0488C44.2305 35.6087 44.4548 35.2363 44.7383 34.9316C45.0218 34.627 45.3434 34.3963 45.7031 34.2397C46.0628 34.0832 46.4352 34.0049 46.8203 34.0049C47.3112 34.0049 47.7344 34.0895 48.0898 34.2588C48.4495 34.4281 48.7437 34.665 48.9722 34.9697C49.2007 35.2702 49.37 35.6257 49.48 36.0361C49.59 36.4424 49.645 36.8867 49.645 37.3691V37.896H44.5161V36.9375H48.4707V36.8486C48.4538 36.5439 48.3903 36.2477 48.2803 35.96C48.1745 35.6722 48.0052 35.4352 47.7725 35.249C47.5397 35.0628 47.2223 34.9697 46.8203 34.9697C46.5537 34.9697 46.3083 35.0269 46.084 35.1411C45.8597 35.2511 45.6672 35.4162 45.5063 35.6362C45.3455 35.8563 45.2207 36.125 45.1318 36.4424C45.043 36.7598 44.9985 37.1258 44.9985 37.5405V37.8071C44.9985 38.133 45.043 38.4398 45.1318 38.7275C45.2249 39.0111 45.3582 39.2607 45.5317 39.4766C45.7095 39.6924 45.9232 39.8617 46.1729 39.9844C46.4268 40.1071 46.7145 40.1685 47.0361 40.1685C47.4508 40.1685 47.8021 40.0838 48.0898 39.9146C48.3776 39.7453 48.6294 39.5189 48.8452 39.2354L49.5562 39.8003C49.408 40.0246 49.2197 40.2383 48.9912 40.4414C48.7627 40.6445 48.4813 40.8096 48.147 40.9365C47.8169 41.0635 47.4255 41.127 46.9727 41.127ZM52.2539 34.1318H53.4282L53.3267 36.7026C53.3013 37.3543 53.2272 37.9172 53.1045 38.3911C52.9818 38.8651 52.8252 39.2692 52.6348 39.6035C52.4443 39.9336 52.2306 40.2108 51.9937 40.4351C51.7609 40.6593 51.5197 40.8477 51.27 41H50.686L50.7178 40.0415L50.959 40.0352C51.0986 39.8701 51.234 39.7008 51.3652 39.5273C51.4964 39.3496 51.617 39.1401 51.7271 38.8989C51.8371 38.6535 51.9281 38.3551 52 38.0039C52.0762 37.6484 52.1248 37.2147 52.146 36.7026L52.2539 34.1318ZM52.5459 34.1318H56.6782V41H55.5039V35.2173H52.5459V34.1318ZM50.4194 40.0352H57.5605V43.0249H56.3862V41H51.5938V43.0249H50.4131L50.4194 40.0352ZM63.521 37.1089V38.061H59.8901V37.1089H63.521ZM60.1377 34.1318V41H58.9634V34.1318H60.1377ZM64.4731 34.1318V41H63.2925V34.1318H64.4731ZM69.2148 41.127C68.7367 41.127 68.3029 41.0465 67.9136 40.8857C67.5285 40.7207 67.1963 40.4901 66.917 40.1938C66.6419 39.8976 66.4303 39.5464 66.2822 39.1401C66.1341 38.7339 66.0601 38.2896 66.0601 37.8071V37.5405C66.0601 36.9819 66.1426 36.4847 66.3076 36.0488C66.4727 35.6087 66.6969 35.2363 66.9805 34.9316C67.264 34.627 67.5856 34.3963 67.9453 34.2397C68.305 34.0832 68.6774 34.0049 69.0625 34.0049C69.5534 34.0049 69.9766 34.0895 70.332 34.2588C70.6917 34.4281 70.9858 34.665 71.2144 34.9697C71.4429 35.2702 71.6121 35.6257 71.7222 36.0361C71.8322 36.4424 71.8872 36.8867 71.8872 37.3691V37.896H66.7583V36.9375H70.7129V36.8486C70.696 36.5439 70.6325 36.2477 70.5225 35.96C70.4167 35.6722 70.2474 35.4352 70.0146 35.249C69.7819 35.0628 69.4645 34.9697 69.0625 34.9697C68.7959 34.9697 68.5505 35.0269 68.3262 35.1411C68.1019 35.2511 67.9093 35.4162 67.7485 35.6362C67.5877 35.8563 67.4629 36.125 67.374 36.4424C67.2852 36.7598 67.2407 37.1258 67.2407 37.5405V37.8071C67.2407 38.133 67.2852 38.4398 67.374 38.7275C67.4671 39.0111 67.6004 39.2607 67.7739 39.4766C67.9517 39.6924 68.1654 39.8617 68.415 39.9844C68.6689 40.1071 68.9567 40.1685 69.2783 40.1685C69.693 40.1685 70.0443 40.0838 70.332 39.9146C70.6198 39.7453 70.8716 39.5189 71.0874 39.2354L71.7983 39.8003C71.6502 40.0246 71.4619 40.2383 71.2334 40.4414C71.0049 40.6445 70.7235 40.8096 70.3892 40.9365C70.0591 41.0635 69.6676 41.127 69.2148 41.127ZM76.4829 37.9785H74.2295L74.2168 37.0391H76.0576C76.4215 37.0391 76.7241 37.0031 76.9653 36.9312C77.2108 36.8592 77.3949 36.7513 77.5176 36.6074C77.6403 36.4635 77.7017 36.2858 77.7017 36.0742C77.7017 35.9092 77.6657 35.7653 77.5938 35.6426C77.526 35.5156 77.4224 35.4119 77.2827 35.3315C77.1431 35.2469 76.9696 35.1855 76.7622 35.1475C76.5591 35.1051 76.32 35.084 76.0449 35.084H74.5405V41H73.3662V34.1318H76.0449C76.4808 34.1318 76.8722 34.1699 77.2192 34.2461C77.5705 34.3223 77.8688 34.4386 78.1143 34.5952C78.3639 34.7476 78.5544 34.9422 78.6855 35.1792C78.8167 35.4162 78.8823 35.6955 78.8823 36.0171C78.8823 36.2244 78.84 36.4212 78.7554 36.6074C78.6707 36.7936 78.5459 36.9587 78.3809 37.1025C78.2158 37.2464 78.0127 37.3649 77.7715 37.458C77.5303 37.5469 77.2531 37.604 76.9399 37.6294L76.4829 37.9785ZM76.4829 41H73.8042L74.3882 40.0479H76.4829C76.8088 40.0479 77.0796 40.0076 77.2954 39.9272C77.5112 39.8426 77.672 39.7241 77.7778 39.5718C77.8879 39.4152 77.9429 39.229 77.9429 39.0132C77.9429 38.7974 77.8879 38.6133 77.7778 38.4609C77.672 38.3044 77.5112 38.1859 77.2954 38.1055C77.0796 38.0208 76.8088 37.9785 76.4829 37.9785H74.6992L74.7119 37.0391H76.9399L77.3652 37.3945C77.7419 37.4242 78.0614 37.5173 78.3237 37.6738C78.5861 37.8304 78.785 38.0293 78.9204 38.2705C79.0558 38.5075 79.1235 38.7656 79.1235 39.0449C79.1235 39.3665 79.0622 39.6501 78.9395 39.8955C78.821 40.141 78.6475 40.3462 78.4189 40.5112C78.1904 40.672 77.9132 40.7948 77.5874 40.8794C77.2616 40.9598 76.8934 41 76.4829 41ZM85.3569 37.1089V38.061H81.7261V37.1089H85.3569ZM81.9736 34.1318V41H80.7993V34.1318H81.9736ZM86.3091 34.1318V41H85.1284V34.1318H86.3091ZM87.8896 37.6421V37.4961C87.8896 37.001 87.9616 36.5418 88.1055 36.1187C88.2493 35.6912 88.4567 35.321 88.7275 35.0078C88.9984 34.6904 89.3263 34.445 89.7114 34.2715C90.0965 34.0938 90.5282 34.0049 91.0063 34.0049C91.4888 34.0049 91.9225 34.0938 92.3076 34.2715C92.6969 34.445 93.027 34.6904 93.2979 35.0078C93.5729 35.321 93.7824 35.6912 93.9263 36.1187C94.0701 36.5418 94.1421 37.001 94.1421 37.4961V37.6421C94.1421 38.1372 94.0701 38.5964 93.9263 39.0195C93.7824 39.4427 93.5729 39.813 93.2979 40.1304C93.027 40.4435 92.6991 40.689 92.314 40.8667C91.9331 41.0402 91.5015 41.127 91.019 41.127C90.5366 41.127 90.1029 41.0402 89.7178 40.8667C89.3327 40.689 89.0026 40.4435 88.7275 40.1304C88.4567 39.813 88.2493 39.4427 88.1055 39.0195C87.9616 38.5964 87.8896 38.1372 87.8896 37.6421ZM89.064 37.4961V37.6421C89.064 37.9849 89.1042 38.3086 89.1846 38.6133C89.265 38.9137 89.3856 39.1803 89.5464 39.4131C89.7114 39.6458 89.9167 39.8299 90.1621 39.9653C90.4076 40.0965 90.6932 40.1621 91.019 40.1621C91.3407 40.1621 91.6221 40.0965 91.8633 39.9653C92.1087 39.8299 92.3118 39.6458 92.4727 39.4131C92.6335 39.1803 92.7541 38.9137 92.8345 38.6133C92.9191 38.3086 92.9614 37.9849 92.9614 37.6421V37.4961C92.9614 37.1576 92.9191 36.8381 92.8345 36.5376C92.7541 36.2329 92.6313 35.9642 92.4663 35.7314C92.3055 35.4945 92.1024 35.3083 91.8569 35.1729C91.6157 35.0374 91.3322 34.9697 91.0063 34.9697C90.6847 34.9697 90.4012 35.0374 90.1558 35.1729C89.9146 35.3083 89.7114 35.4945 89.5464 35.7314C89.3856 35.9642 89.265 36.2329 89.1846 36.5376C89.1042 36.8381 89.064 37.1576 89.064 37.4961ZM99.8804 40.0161H100.001C100.678 40.0161 101.228 39.9209 101.651 39.7305C102.075 39.54 102.4 39.284 102.629 38.9624C102.857 38.6408 103.014 38.279 103.099 37.877C103.183 37.4707 103.226 37.0539 103.226 36.6265V35.2109C103.226 34.792 103.177 34.4196 103.08 34.0938C102.986 33.7679 102.855 33.495 102.686 33.2749C102.521 33.0549 102.333 32.8877 102.121 32.7734C101.91 32.6592 101.685 32.6021 101.448 32.6021C101.177 32.6021 100.934 32.6571 100.718 32.7671C100.507 32.8729 100.327 33.0231 100.179 33.2178C100.035 33.4124 99.9248 33.641 99.8486 33.9033C99.7725 34.1657 99.7344 34.4513 99.7344 34.7603C99.7344 35.0353 99.7682 35.3019 99.8359 35.5601C99.9036 35.8182 100.007 36.0509 100.147 36.2583C100.287 36.4657 100.46 36.6307 100.667 36.7534C100.879 36.8719 101.127 36.9312 101.41 36.9312C101.673 36.9312 101.918 36.8804 102.146 36.7788C102.379 36.673 102.584 36.5312 102.762 36.3535C102.944 36.1715 103.088 35.9663 103.194 35.7378C103.304 35.5093 103.367 35.2702 103.384 35.0205H103.943C103.943 35.3717 103.873 35.7188 103.733 36.0615C103.598 36.4001 103.408 36.709 103.162 36.9883C102.917 37.2676 102.629 37.4919 102.299 37.6611C101.969 37.8262 101.609 37.9087 101.22 37.9087C100.763 37.9087 100.367 37.8198 100.033 37.6421C99.6984 37.4644 99.4233 37.2274 99.2075 36.9312C98.9959 36.6349 98.8372 36.3049 98.7314 35.9409C98.6299 35.5728 98.5791 35.2004 98.5791 34.8237C98.5791 34.3836 98.6405 33.971 98.7632 33.5859C98.8859 33.2008 99.0679 32.8623 99.3091 32.5703C99.5503 32.2741 99.8486 32.0435 100.204 31.8784C100.564 31.7134 100.979 31.6309 101.448 31.6309C101.977 31.6309 102.428 31.7367 102.8 31.9482C103.173 32.1598 103.475 32.4434 103.708 32.7988C103.945 33.1543 104.118 33.5542 104.229 33.9985C104.339 34.4429 104.394 34.8999 104.394 35.3696V35.7949C104.394 36.2731 104.362 36.7598 104.298 37.2549C104.239 37.7458 104.123 38.2155 103.949 38.6641C103.78 39.1126 103.532 39.5146 103.207 39.8701C102.881 40.2214 102.455 40.5007 101.931 40.708C101.41 40.9111 100.767 41.0127 100.001 41.0127H99.8804V40.0161ZM106.101 40.3779C106.101 40.179 106.162 40.0119 106.285 39.8765C106.412 39.7368 106.594 39.667 106.831 39.667C107.068 39.667 107.248 39.7368 107.371 39.8765C107.498 40.0119 107.561 40.179 107.561 40.3779C107.561 40.5726 107.498 40.7376 107.371 40.873C107.248 41.0085 107.068 41.0762 106.831 41.0762C106.594 41.0762 106.412 41.0085 106.285 40.873C106.162 40.7376 106.101 40.5726 106.101 40.3779ZM106.107 34.7729C106.107 34.5741 106.169 34.4069 106.292 34.2715C106.418 34.1318 106.6 34.062 106.837 34.062C107.074 34.062 107.254 34.1318 107.377 34.2715C107.504 34.4069 107.567 34.5741 107.567 34.7729C107.567 34.9676 107.504 35.1326 107.377 35.2681C107.254 35.4035 107.074 35.4712 106.837 35.4712C106.6 35.4712 106.418 35.4035 106.292 35.2681C106.169 35.1326 106.107 34.9676 106.107 34.7729ZM114.975 35.6426V37.0518C114.975 37.8092 114.907 38.4482 114.772 38.9688C114.637 39.4893 114.442 39.9082 114.188 40.2256C113.934 40.543 113.627 40.7736 113.268 40.9175C112.912 41.0571 112.51 41.127 112.062 41.127C111.706 41.127 111.378 41.0825 111.078 40.9937C110.777 40.9048 110.506 40.763 110.265 40.5684C110.028 40.3695 109.825 40.1113 109.656 39.7939C109.486 39.4766 109.357 39.0915 109.269 38.6387C109.18 38.1859 109.135 37.6569 109.135 37.0518V35.6426C109.135 34.8851 109.203 34.2503 109.338 33.7383C109.478 33.2262 109.675 32.8158 109.929 32.5068C110.183 32.1937 110.487 31.9694 110.843 31.834C111.202 31.6986 111.604 31.6309 112.049 31.6309C112.409 31.6309 112.739 31.6753 113.039 31.7642C113.344 31.8488 113.615 31.9863 113.852 32.1768C114.089 32.363 114.29 32.6126 114.455 32.9258C114.624 33.2347 114.753 33.6134 114.842 34.062C114.931 34.5106 114.975 35.0374 114.975 35.6426ZM113.794 37.2422V35.4458C113.794 35.0311 113.769 34.6672 113.718 34.354C113.672 34.0366 113.602 33.7658 113.509 33.5415C113.416 33.3172 113.297 33.1353 113.153 32.9956C113.014 32.856 112.851 32.7544 112.665 32.6909C112.483 32.6232 112.277 32.5894 112.049 32.5894C111.77 32.5894 111.522 32.6423 111.306 32.748C111.09 32.8496 110.908 33.0125 110.76 33.2368C110.616 33.4611 110.506 33.7552 110.43 34.1191C110.354 34.4831 110.316 34.9253 110.316 35.4458V37.2422C110.316 37.6569 110.339 38.0229 110.386 38.3403C110.437 38.6577 110.511 38.9328 110.608 39.1655C110.705 39.394 110.824 39.5824 110.963 39.7305C111.103 39.8786 111.264 39.9886 111.446 40.0605C111.632 40.1283 111.837 40.1621 112.062 40.1621C112.349 40.1621 112.601 40.1071 112.817 39.9971C113.033 39.887 113.213 39.7157 113.356 39.4829C113.505 39.2459 113.615 38.9434 113.687 38.5752C113.758 38.2028 113.794 37.7585 113.794 37.2422ZM122.288 35.6426V37.0518C122.288 37.8092 122.22 38.4482 122.084 38.9688C121.949 39.4893 121.754 39.9082 121.5 40.2256C121.247 40.543 120.94 40.7736 120.58 40.9175C120.225 41.0571 119.823 41.127 119.374 41.127C119.019 41.127 118.691 41.0825 118.39 40.9937C118.09 40.9048 117.819 40.763 117.578 40.5684C117.341 40.3695 117.138 40.1113 116.968 39.7939C116.799 39.4766 116.67 39.0915 116.581 38.6387C116.492 38.1859 116.448 37.6569 116.448 37.0518V35.6426C116.448 34.8851 116.515 34.2503 116.651 33.7383C116.791 33.2262 116.987 32.8158 117.241 32.5068C117.495 32.1937 117.8 31.9694 118.155 31.834C118.515 31.6986 118.917 31.6309 119.361 31.6309C119.721 31.6309 120.051 31.6753 120.352 31.7642C120.656 31.8488 120.927 31.9863 121.164 32.1768C121.401 32.363 121.602 32.6126 121.767 32.9258C121.936 33.2347 122.065 33.6134 122.154 34.062C122.243 34.5106 122.288 35.0374 122.288 35.6426ZM121.107 37.2422V35.4458C121.107 35.0311 121.082 34.6672 121.031 34.354C120.984 34.0366 120.914 33.7658 120.821 33.5415C120.728 33.3172 120.61 33.1353 120.466 32.9956C120.326 32.856 120.163 32.7544 119.977 32.6909C119.795 32.6232 119.59 32.5894 119.361 32.5894C119.082 32.5894 118.834 32.6423 118.619 32.748C118.403 32.8496 118.221 33.0125 118.073 33.2368C117.929 33.4611 117.819 33.7552 117.743 34.1191C117.667 34.4831 117.628 34.9253 117.628 35.4458V37.2422C117.628 37.6569 117.652 38.0229 117.698 38.3403C117.749 38.6577 117.823 38.9328 117.92 39.1655C118.018 39.394 118.136 39.5824 118.276 39.7305C118.416 39.8786 118.576 39.9886 118.758 40.0605C118.944 40.1283 119.15 40.1621 119.374 40.1621C119.662 40.1621 119.914 40.1071 120.129 39.9971C120.345 39.887 120.525 39.7157 120.669 39.4829C120.817 39.2459 120.927 38.9434 120.999 38.5752C121.071 38.2028 121.107 37.7585 121.107 37.2422ZM133.644 35.9028V36.8677H127.283V35.9028H133.644ZM144.834 40.0352V41H138.785V40.1558L141.813 36.7852C142.185 36.3704 142.473 36.0192 142.676 35.7314C142.884 35.4395 143.028 35.1792 143.108 34.9507C143.193 34.7179 143.235 34.481 143.235 34.2397C143.235 33.9351 143.171 33.66 143.044 33.4146C142.922 33.1649 142.74 32.966 142.499 32.8179C142.257 32.6698 141.965 32.5957 141.623 32.5957C141.212 32.5957 140.869 32.6761 140.594 32.8369C140.323 32.9935 140.12 33.2135 139.985 33.4971C139.849 33.7806 139.782 34.1064 139.782 34.4746H138.607C138.607 33.9541 138.722 33.478 138.95 33.0464C139.179 32.6147 139.517 32.272 139.966 32.0181C140.414 31.7599 140.967 31.6309 141.623 31.6309C142.207 31.6309 142.706 31.7345 143.121 31.9419C143.535 32.145 143.853 32.4328 144.073 32.8052C144.297 33.1733 144.409 33.605 144.409 34.1001C144.409 34.3709 144.363 34.646 144.27 34.9253C144.181 35.2004 144.056 35.4754 143.895 35.7505C143.738 36.0256 143.554 36.2964 143.343 36.563C143.135 36.8296 142.913 37.092 142.676 37.3501L140.201 40.0352H144.834ZM152.147 40.0352V41H146.098V40.1558L149.125 36.7852C149.498 36.3704 149.786 36.0192 149.989 35.7314C150.196 35.4395 150.34 35.1792 150.42 34.9507C150.505 34.7179 150.547 34.481 150.547 34.2397C150.547 33.9351 150.484 33.66 150.357 33.4146C150.234 33.1649 150.052 32.966 149.811 32.8179C149.57 32.6698 149.278 32.5957 148.935 32.5957C148.525 32.5957 148.182 32.6761 147.907 32.8369C147.636 32.9935 147.433 33.2135 147.297 33.4971C147.162 33.7806 147.094 34.1064 147.094 34.4746H145.92C145.92 33.9541 146.034 33.478 146.263 33.0464C146.491 32.6147 146.83 32.272 147.278 32.0181C147.727 31.7599 148.279 31.6309 148.935 31.6309C149.519 31.6309 150.018 31.7345 150.433 31.9419C150.848 32.145 151.165 32.4328 151.385 32.8052C151.61 33.1733 151.722 33.605 151.722 34.1001C151.722 34.3709 151.675 34.646 151.582 34.9253C151.493 35.2004 151.368 35.4754 151.208 35.7505C151.051 36.0256 150.867 36.2964 150.655 36.563C150.448 36.8296 150.226 37.092 149.989 37.3501L147.513 40.0352H152.147ZM153.48 40.3779C153.48 40.179 153.541 40.0119 153.664 39.8765C153.791 39.7368 153.973 39.667 154.21 39.667C154.447 39.667 154.627 39.7368 154.75 39.8765C154.876 40.0119 154.94 40.179 154.94 40.3779C154.94 40.5726 154.876 40.7376 154.75 40.873C154.627 41.0085 154.447 41.0762 154.21 41.0762C153.973 41.0762 153.791 41.0085 153.664 40.873C153.541 40.7376 153.48 40.5726 153.48 40.3779ZM153.486 34.7729C153.486 34.5741 153.548 34.4069 153.67 34.2715C153.797 34.1318 153.979 34.062 154.216 34.062C154.453 34.062 154.633 34.1318 154.756 34.2715C154.883 34.4069 154.946 34.5741 154.946 34.7729C154.946 34.9676 154.883 35.1326 154.756 35.2681C154.633 35.4035 154.453 35.4712 154.216 35.4712C153.979 35.4712 153.797 35.4035 153.67 35.2681C153.548 35.1326 153.486 34.9676 153.486 34.7729ZM162.354 35.6426V37.0518C162.354 37.8092 162.286 38.4482 162.151 38.9688C162.015 39.4893 161.821 39.9082 161.567 40.2256C161.313 40.543 161.006 40.7736 160.646 40.9175C160.291 41.0571 159.889 41.127 159.44 41.127C159.085 41.127 158.757 41.0825 158.457 40.9937C158.156 40.9048 157.885 40.763 157.644 40.5684C157.407 40.3695 157.204 40.1113 157.035 39.7939C156.865 39.4766 156.736 39.0915 156.647 38.6387C156.559 38.1859 156.514 37.6569 156.514 37.0518V35.6426C156.514 34.8851 156.582 34.2503 156.717 33.7383C156.857 33.2262 157.054 32.8158 157.308 32.5068C157.562 32.1937 157.866 31.9694 158.222 31.834C158.581 31.6986 158.983 31.6309 159.428 31.6309C159.787 31.6309 160.118 31.6753 160.418 31.7642C160.723 31.8488 160.993 31.9863 161.23 32.1768C161.467 32.363 161.668 32.6126 161.833 32.9258C162.003 33.2347 162.132 33.6134 162.221 34.062C162.31 34.5106 162.354 35.0374 162.354 35.6426ZM161.173 37.2422V35.4458C161.173 35.0311 161.148 34.6672 161.097 34.354C161.051 34.0366 160.981 33.7658 160.888 33.5415C160.795 33.3172 160.676 33.1353 160.532 32.9956C160.393 32.856 160.23 32.7544 160.043 32.6909C159.861 32.6232 159.656 32.5894 159.428 32.5894C159.148 32.5894 158.901 32.6423 158.685 32.748C158.469 32.8496 158.287 33.0125 158.139 33.2368C157.995 33.4611 157.885 33.7552 157.809 34.1191C157.733 34.4831 157.695 34.9253 157.695 35.4458V37.2422C157.695 37.6569 157.718 38.0229 157.765 38.3403C157.815 38.6577 157.889 38.9328 157.987 39.1655C158.084 39.394 158.203 39.5824 158.342 39.7305C158.482 39.8786 158.643 39.9886 158.825 40.0605C159.011 40.1283 159.216 40.1621 159.44 40.1621C159.728 40.1621 159.98 40.1071 160.196 39.9971C160.412 39.887 160.591 39.7157 160.735 39.4829C160.883 39.2459 160.993 38.9434 161.065 38.5752C161.137 38.2028 161.173 37.7585 161.173 37.2422ZM169.667 35.6426V37.0518C169.667 37.8092 169.599 38.4482 169.463 38.9688C169.328 39.4893 169.133 39.9082 168.879 40.2256C168.625 40.543 168.319 40.7736 167.959 40.9175C167.604 41.0571 167.201 41.127 166.753 41.127C166.397 41.127 166.069 41.0825 165.769 40.9937C165.469 40.9048 165.198 40.763 164.957 40.5684C164.72 40.3695 164.516 40.1113 164.347 39.7939C164.178 39.4766 164.049 39.0915 163.96 38.6387C163.871 38.1859 163.827 37.6569 163.827 37.0518V35.6426C163.827 34.8851 163.894 34.2503 164.03 33.7383C164.169 33.2262 164.366 32.8158 164.62 32.5068C164.874 32.1937 165.179 31.9694 165.534 31.834C165.894 31.6986 166.296 31.6309 166.74 31.6309C167.1 31.6309 167.43 31.6753 167.73 31.7642C168.035 31.8488 168.306 31.9863 168.543 32.1768C168.78 32.363 168.981 32.6126 169.146 32.9258C169.315 33.2347 169.444 33.6134 169.533 34.062C169.622 34.5106 169.667 35.0374 169.667 35.6426ZM168.486 37.2422V35.4458C168.486 35.0311 168.46 34.6672 168.41 34.354C168.363 34.0366 168.293 33.7658 168.2 33.5415C168.107 33.3172 167.989 33.1353 167.845 32.9956C167.705 32.856 167.542 32.7544 167.356 32.6909C167.174 32.6232 166.969 32.5894 166.74 32.5894C166.461 32.5894 166.213 32.6423 165.998 32.748C165.782 32.8496 165.6 33.0125 165.452 33.2368C165.308 33.4611 165.198 33.7552 165.122 34.1191C165.045 34.4831 165.007 34.9253 165.007 35.4458V37.2422C165.007 37.6569 165.031 38.0229 165.077 38.3403C165.128 38.6577 165.202 38.9328 165.299 39.1655C165.397 39.394 165.515 39.5824 165.655 39.7305C165.794 39.8786 165.955 39.9886 166.137 40.0605C166.323 40.1283 166.529 40.1621 166.753 40.1621C167.041 40.1621 167.292 40.1071 167.508 39.9971C167.724 39.887 167.904 39.7157 168.048 39.4829C168.196 39.2459 168.306 38.9434 168.378 38.5752C168.45 38.2028 168.486 37.7585 168.486 37.2422Z" fill="#7D808A"/>
<path fill-rule="evenodd" clip-rule="evenodd" d="M1.88541 4.51019C2.06038 4.33547 2.27048 4.19994 2.50179 4.11257C2.7331 4.02519 2.98033 3.98798 3.22711 4.00339C3.47389 4.01881 3.71457 4.08649 3.93321 4.20197C4.15185 4.31744 4.34346 4.47807 4.49533 4.6732L6.29027 6.97931C6.61926 7.40233 6.73526 7.95335 6.60526 8.47338L6.05828 10.6635C6.03 10.7769 6.03153 10.8957 6.06272 11.0084C6.0939 11.1211 6.15369 11.2238 6.23628 11.3065L8.6932 13.7636C8.77603 13.8464 8.87889 13.9063 8.99174 13.9375C9.1046 13.9687 9.2236 13.9701 9.33718 13.9416L11.5261 13.3946C11.7827 13.3304 12.0506 13.3255 12.3094 13.38C12.5682 13.4346 12.8112 13.5473 13.0201 13.7096L15.326 15.5037C16.155 16.1487 16.231 17.3738 15.489 18.1148L14.455 19.1489C13.715 19.8889 12.6091 20.2139 11.5781 19.8509C8.93937 18.9224 6.54354 17.4116 4.56833 15.4307C2.58768 13.4556 1.07705 11.06 0.148466 8.42137C-0.213522 7.39133 0.111467 6.28428 0.851444 5.54424L1.88541 4.51019Z" fill="#008139"/>
</svg>
